<?xml version="1.0" encoding="UTF-8"?>
<svg version="1.1" xmlns="http://www.w3.org/2000/svg" width="512" height="512">
<path d="M0 0 C0.89115509 -0.00974854 1.78231018 -0.01949707 2.70046997 -0.02954102 C22.63293108 -0.20264286 41.86559565 0.06369901 61.4453125 4.23828125 C62.77079102 4.51115967 62.77079102 4.51115967 64.12304688 4.78955078 C105.34784078 13.49342708 143.65278781 33.55407357 174.4453125 62.23828125 C175.83675916 63.45166344 177.23239889 64.66025928 178.6328125 65.86328125 C185.12642006 71.55168147 190.72060083 77.62806502 196.12890625 84.36328125 C197.62026628 86.21427785 199.13192996 88.04918974 200.66796875 89.86328125 C211.37655764 102.55494215 219.73850793 116.5738543 227.4453125 131.23828125 C227.79303711 131.88893555 228.14076172 132.53958984 228.49902344 133.20996094 C239.66788692 154.35997462 246.75126165 178.69014258 250.4453125 202.23828125 C250.62787598 203.39384521 250.81043945 204.54940918 250.99853516 205.73999023 C252.59886637 217.00999862 252.84447883 228.17905615 252.8203125 239.55078125 C252.81949677 240.99969254 252.81949677 240.99969254 252.81866455 242.47787476 C252.75654087 266.55129834 249.41615617 289.15610162 242.4453125 312.23828125 C242.19442871 313.07343262 241.94354492 313.90858398 241.68505859 314.76904297 C231.64027637 347.38390177 213.65619439 377.32137709 190.4453125 402.23828125 C189.23193031 403.62972791 188.02333447 405.02536764 186.8203125 406.42578125 C181.16171235 412.9039028 174.98572841 418.66431855 168.4453125 424.23828125 C167.57132812 425.00140625 166.69734375 425.76453125 165.796875 426.55078125 C130.18990954 457.09831194 84.75090414 474.77520087 38.4453125 480.23828125 C37.38441406 480.36976563 36.32351563 480.50125 35.23046875 480.63671875 C-30.21716257 487.1375573 -94.27779172 464.91660701 -144.69921875 423.69921875 C-147.45895357 421.32078792 -150.00757793 418.84145927 -152.5546875 416.23828125 C-153.93914062 414.88863281 -153.93914062 414.88863281 -155.3515625 413.51171875 C-161.07941969 407.90907115 -166.44354763 402.2103783 -171.42578125 395.91796875 C-172.80070243 394.18733402 -174.20791625 392.48165502 -175.65234375 390.80859375 C-207.32119054 353.90950185 -227.34876896 301.35224777 -227.79296875 252.68359375 C-227.8027626 251.79257462 -227.81255646 250.90155548 -227.82264709 249.98353577 C-228.06977464 221.65429212 -225.7888597 195.50365266 -217.5546875 168.23828125 C-217.17836182 166.9855542 -217.17836182 166.9855542 -216.79443359 165.70751953 C-203.42490392 122.29738749 -175.36083111 81.26686088 -139.5546875 53.23828125 C-138.56984375 52.44808594 -137.585 51.65789062 -136.5703125 50.84375 C-98.53859031 20.59941859 -48.96468094 0.44659656 0 0 Z " fill="#4BC090" transform="translate(243.5546875,15.76171875)"/>
<path d="M0 0 C0 0.66 0 1.32 0 2 C0.58555664 2.27166992 1.17111328 2.54333984 1.77441406 2.82324219 C3.9695197 3.98388382 5.70117239 5.24669053 7.609375 6.828125 C8.61871094 7.65763672 8.61871094 7.65763672 9.6484375 8.50390625 C10.34195313 9.08011719 11.03546875 9.65632812 11.75 10.25 C13.1185136 11.38175554 14.48830463 12.51196822 15.859375 13.640625 C16.53516602 14.20628174 17.21095703 14.77193848 17.90722656 15.35473633 C19.97662222 17.04011624 19.97662222 17.04011624 22.27246094 18.43237305 C27.64980691 21.87839345 27.64980691 21.87839345 28.65722656 25.10498047 C28.86932472 27.54001082 28.85241267 29.87090524 28.75 32.3125 C28.79077069 39.34109945 28.90036813 45.01427552 33 51 C33.65162109 51.96099609 33.65162109 51.96099609 34.31640625 52.94140625 C38.49141481 58.39053186 43.59837514 60.86612505 50 63 C54.70405771 63.26503996 59.414297 63.23156281 64.125 63.25 C65.41921875 63.270625 66.7134375 63.29125 68.046875 63.3125 C79.11883481 63.35759963 87.85251768 61.9162219 96 54 C99.88192697 49.06384413 102.39557882 43.81772155 103.3828125 37.58203125 C104.31272247 31.85885809 105.19714343 28.72221384 110 25 C113.19598065 23.40200967 116.52322756 23.63226445 120 24 C124.22327552 25.78316078 126.17104212 27.81952484 128 32 C128.34359178 33.7650642 128.65263601 35.53701149 128.9375 37.3125 C130.19722333 45.04782593 133.32513782 52.54902877 139.8203125 57.34375 C147.89708522 62.62589794 155.06958637 63.4247127 164.61083984 63.48046875 C166.59912307 63.49974907 168.58683731 63.56209574 170.57421875 63.625 C180.24185974 63.70241855 188.10210895 61.86470239 195.70166016 55.59643555 C197.25528608 53.99678038 197.25528608 53.99678038 199 51 C199.37640625 50.43539062 199.7528125 49.87078125 200.140625 49.2890625 C202.83018153 44.49710616 203.10122344 40.41145763 203.06567383 35.0402832 C203.05232558 24.35655008 203.05232558 24.35655008 205.9375 20.2265625 C208.27249048 18.35718024 210.64213638 16.73659146 213.19628906 15.18408203 C216.84327918 12.78994261 220.09952342 9.86287985 223.4375 7.0625 C224.78595547 5.94388229 226.13859343 4.83028011 227.49609375 3.72265625 C228.36512329 3.00734741 228.36512329 3.00734741 229.25170898 2.27758789 C231.11150631 0.91851522 232.86947707 -0.12162888 235 -1 C242.80832651 0.97864056 248.52828954 6.56032479 253 13 C257.28044694 20.26708648 258.10734543 27.69980907 257 36 C254.57466085 45.1984061 249.98222164 52.27603988 241.84765625 57.33984375 C236.11173289 60.3413232 231.50954835 61.12518362 225 61 C224.96334229 61.61093506 224.92668457 62.22187012 224.88891602 62.85131836 C224.40068539 69.15727851 223.10921394 74.63721373 220.9375 80.5625 C220.4744043 81.85015259 220.4744043 81.85015259 220.00195312 83.16381836 C213.843112 99.9016108 205.67610347 114.50430122 194.72265625 128.56640625 C192.80741238 130.77513532 192.80741238 130.77513532 193 133 C194.55687943 134.49600355 194.55687943 134.49600355 196.5625 136.0625 C206.40811649 144.49911484 212.61920504 155.23028157 215 168 C215.02659982 169.9998231 215.03102589 172.00024067 215 174 C216.01578125 173.95359375 217.0315625 173.9071875 218.078125 173.859375 C233.0313153 173.38142748 246.72069055 177.2269854 258.1875 187.375 C263.67147406 193.25148754 266.73929995 200.74892092 270 208 C270.30776367 208.67595215 270.61552734 209.3519043 270.93261719 210.04833984 C276 221.23766892 276 221.23766892 276 225 C274.02127906 226.80493497 272.07368672 228.4001865 269.9375 230 C269.30336182 230.483479 268.66922363 230.96695801 268.01586914 231.46508789 C266.67802118 232.48135202 265.33670573 233.4930655 263.9921875 234.50048828 C262.1361088 235.89755144 260.3008679 237.31784644 258.46875 238.74609375 C224.81360239 264.63069598 183.82526313 278.86069918 142 284 C140.93523437 284.13277344 139.87046875 284.26554687 138.7734375 284.40234375 C74.19142078 290.75610011 10.08338432 269.32304088 -39.78759766 228.53808594 C-41.19693339 227.36494482 -42.59927463 226.18340853 -44 225 C-43.04923468 219.54805903 -40.98241858 214.81432716 -38.8125 209.75 C-38.43802734 208.84636719 -38.06355469 207.94273437 -37.67773438 207.01171875 C-31.67918575 192.95103984 -23.36487114 182.89786311 -9 177 C-8.24332031 176.6803125 -7.48664063 176.360625 -6.70703125 176.03125 C1.01948756 173.23572561 8.90855383 173.72894659 17 174 C17.02578125 173.40574219 17.0515625 172.81148437 17.078125 172.19921875 C18.1583056 156.41385219 25.62198576 144.55879722 37 134 C37.66 133.34 38.32 132.68 39 132 C38.40574219 131.23300781 37.81148438 130.46601563 37.19921875 129.67578125 C21.87794989 109.37877474 12.98506692 86.53505694 7 62 C6.0821875 61.85304688 5.164375 61.70609375 4.21875 61.5546875 C-7.13391892 59.4797249 -14.35799227 55.52712984 -21 46 C-25.26148723 38.22611509 -26.4552599 28.96130563 -24.3515625 20.34375 C-20.97764872 11.00060416 -14.82121364 4.46813648 -6 0 C-3 -1 -3 -1 0 0 Z " fill="#F7DB25" transform="translate(140,212)"/>
<path d="M0 0 C3.84046467 0.02762924 6.13077328 0.91057996 9.25 3.25 C9.806875 2.755 10.36375 2.26 10.9375 1.75 C13.7230572 -0.05684791 14.99084723 -0.32035173 18.25 0.25 C20.5625 1.8125 20.5625 1.8125 22.25 4.25 C22.72350812 8.6694091 22.35917681 11.40286149 20.25 15.25 C20.96027344 15.94867188 21.67054688 16.64734375 22.40234375 17.3671875 C23.32144531 18.27726562 24.24054688 19.18734375 25.1875 20.125 C26.10402344 21.02992187 27.02054687 21.93484375 27.96484375 22.8671875 C30.63401326 25.65042408 31.14310014 26.58187587 31.75 30.375 C31.02137608 36.0218354 28.20398782 38.33427658 24.25 42.25 C23.12948037 43.38209244 22.00974918 44.51496557 20.890625 45.6484375 C17.69753273 48.86995752 14.4791037 52.06459846 11.25 55.25 C17.28916675 55.63898563 20.89953548 54.9381246 26 51.5625 C26.63212402 51.17328369 27.26424805 50.78406738 27.91552734 50.38305664 C31.72370686 48.00809744 35.34347858 45.45519492 38.9296875 42.7578125 C51.67068413 33.42813136 59.40198206 31.85794437 75.25 33.25 C73.27 26.65 71.29 20.05 69.25 13.25 C66.45052083 13.0546875 63.65104167 12.859375 60.8515625 12.6640625 C58.25 12.25 58.25 12.25 56.25 10.25 C56.80555556 5.69444444 56.80555556 5.69444444 58.25 4.25 C61.10017298 4.14412211 63.92624368 4.10322265 66.77709961 4.10473633 C68.11849251 4.09969841 68.11849251 4.09969841 69.48698425 4.09455872 C72.45878468 4.08501843 75.43052895 4.08310408 78.40234375 4.08203125 C80.45878625 4.07882084 82.51522852 4.07545694 84.57167053 4.07194519 C88.88852468 4.06594623 93.20535878 4.06410608 97.5222168 4.06469727 C103.0654033 4.06479894 108.60846185 4.05114467 114.151618 4.03392506 C118.40056453 4.0228299 122.64947988 4.02077729 126.89843941 4.02130699 C128.94265751 4.02012319 130.98687632 4.01567922 133.03108025 4.00797462 C135.88531439 3.99822456 138.73926761 4.00103293 141.59350586 4.00708008 C142.44501221 4.00146057 143.29651855 3.99584106 144.17382812 3.99005127 C150.02168471 4.02168471 150.02168471 4.02168471 152.25 6.25 C151.69444444 10.80555556 151.69444444 10.80555556 150.25 12.25 C148.40108054 12.48363881 146.54511969 12.66303635 144.6875 12.8125 C141.9959375 13.0290625 141.9959375 13.0290625 139.25 13.25 C137.27 19.85 135.29 26.45 133.25 33.25 C139.38392654 32.97582629 139.38392654 32.97582629 145.51318359 32.61938477 C153.29772704 32.44648344 157.29952807 35.58036966 163.25 40.25 C167.19925719 42.97514186 171.22088514 45.58238068 175.25 48.1875 C176.77367187 49.21327148 176.77367187 49.21327148 178.328125 50.25976562 C184.81797853 54.4240883 189.50974387 56.33847352 197.25 55.25 C196.67967041 54.68490723 196.10934082 54.11981445 195.52172852 53.53759766 C192.94939325 50.98599645 190.38090663 48.43055542 187.8125 45.875 C186.46575195 44.54082031 186.46575195 44.54082031 185.09179688 43.1796875 C184.23779297 42.32890625 183.38378906 41.478125 182.50390625 40.6015625 C181.71314697 39.81604004 180.9223877 39.03051758 180.10766602 38.22119141 C177.73454588 35.70304553 177.30280689 34.58004309 176.75 31.125 C177.46243774 25.60360754 180.39264103 23.05779975 184.25 19.25 C185.054375 18.425 185.85875 17.6 186.6875 16.75 C187.203125 16.255 187.71875 15.76 188.25 15.25 C187.92 14.734375 187.59 14.21875 187.25 13.6875 C185.87501499 10.33597404 185.86532006 7.84034613 186.25 4.25 C187.8125 1.75 187.8125 1.75 190.25 0.25 C194.48312311 0.39853064 196.71102322 0.89068215 200.25 3.25 C200.765625 2.755 201.28125 2.26 201.8125 1.75 C205.04499888 -0.23923008 207.59496998 -0.38042429 211.25 0.25 C214.86928234 1.64865295 218.22348729 3.45381627 221.625 5.3125 C222.51960938 5.77849609 223.41421875 6.24449219 224.3359375 6.72460938 C236.4111204 13.17465257 245.45362169 22.16205964 255.00878906 31.80297852 C257.13548271 33.94807341 259.27021559 36.08491323 261.40625 38.22070312 C262.76870415 39.58806855 264.13069991 40.95589092 265.4921875 42.32421875 C266.12655731 42.95970139 266.76092712 43.59518402 267.41452026 44.24992371 C275.03351991 51.95111943 275.03351991 51.95111943 275.875 57 C275.74915058 61.80924564 273.08908796 64.25263817 269.78125 67.48828125 C267.92199351 69.23834541 267.92199351 69.23834541 268.25 72.25 C268.91 73.24 269.57 74.23 270.25 75.25 C270.7515316 78.50995538 270.54854288 79.80815654 268.6875 82.5625 C265.36272628 84.86426642 263.21808477 84.67515194 259.25 84.25 C257.89635459 83.62560722 256.55715273 82.96664075 255.25 82.25 C254.55132812 82.96027344 253.85265625 83.67054688 253.1328125 84.40234375 C252.22273438 85.32144531 251.31265625 86.24054688 250.375 87.1875 C249.01761719 88.56228516 249.01761719 88.56228516 247.6328125 89.96484375 C244.46933511 92.99867043 242.08677103 93.9246134 237.625 93.94921875 C232.34365271 92.39434841 228.76299263 87.28130301 225.25 83.25 C223.65494138 94.0157351 223.65494138 94.0157351 226.38085938 104.19873047 C229.32923076 107.66933362 232.87584249 110.37385073 236.56103516 113.02148438 C238.96166638 114.76765036 241.16166396 116.71196039 243.375 118.6875 C244.05820312 119.26371094 244.74140625 119.83992188 245.4453125 120.43359375 C248.3603347 123.36754467 250.07659576 126.08571437 250.6875 130.1875 C250.01854548 134.87018167 247.66387135 137.67903183 244.5625 141.125 C240.66295944 143.02207379 237.46734779 143.35576802 233.25 142.25 C226.80036428 138.18233202 221.45837034 132.62611426 216.171875 127.17578125 C213.50774605 124.5062374 210.6759654 122.05430296 207.81640625 119.59765625 C206.93751602 118.84150381 206.06982149 118.06982149 205.25 117.25 C202.65072786 117.13446462 200.07736972 117.08437815 197.47691345 117.07591248 C196.24065691 117.06616405 196.24065691 117.06616405 194.97942549 117.05621868 C192.19584754 117.03571102 189.41228435 117.0225708 186.62866211 117.00952148 C184.64151807 116.99671689 182.65437615 116.98358157 180.66723633 116.97013855 C162.50465192 116.85409825 144.3415122 116.79758652 126.17862606 116.75337124 C112.74768163 116.72012986 99.31741176 116.66058649 85.88675684 116.56586021 C76.44975604 116.50154663 67.0129391 116.46783671 57.57572752 116.45662171 C51.93681639 116.44905705 46.29871904 116.42784095 40.66004753 116.37359428 C35.35170462 116.32313122 30.0446059 116.31055955 24.7360611 116.32684517 C22.78978375 116.32624172 20.84345437 116.31197681 18.89739418 116.28289795 C8.75047152 115.81016092 8.75047152 115.81016092 -0.59164238 118.97218513 C-2.59388026 120.95953405 -4.13340905 122.94807014 -5.75 125.25 C-7.01130695 126.42916987 -8.30025596 127.58007504 -9.625 128.6875 C-13.70375523 132.19166868 -17.67803967 135.80347276 -21.6484375 139.4296875 C-25.19348314 142.50030324 -27.85490508 142.63883932 -32.421875 142.609375 C-36.34004236 142.00455722 -38.05358816 140.08123243 -40.75 137.25 C-42.61855108 133.51289783 -42.29097324 129.31988004 -41.75 125.25 C-40.09915613 122.61896758 -38.99534026 121.22633862 -36.75 119.25 C-35.91275391 118.49203125 -35.91275391 118.49203125 -35.05859375 117.71875 C-34.44113281 117.1721875 -33.82367188 116.625625 -33.1875 116.0625 C-32.18009766 115.16917969 -32.18009766 115.16917969 -31.15234375 114.2578125 C-28.75 112.25 -28.75 112.25 -25.56640625 109.9921875 C-19.47025777 105.5508862 -19.47025777 105.5508862 -16.21679688 98.99316406 C-15.7150435 93.69523873 -16.12375861 88.52086499 -16.75 83.25 C-17.37648437 83.88808594 -18.00296875 84.52617187 -18.6484375 85.18359375 C-19.46570313 86.00988281 -20.28296875 86.83617187 -21.125 87.6875 C-21.93710938 88.51121094 -22.74921875 89.33492188 -23.5859375 90.18359375 C-26.22626555 92.70477342 -27.25308049 93.17049288 -30.875 93.75 C-36.39639246 93.03756226 -38.94220025 90.10735897 -42.75 86.25 C-43.575 85.445625 -44.4 84.64125 -45.25 83.8125 C-45.745 83.296875 -46.24 82.78125 -46.75 82.25 C-47.5234375 82.745 -47.5234375 82.745 -48.3125 83.25 C-51.66402596 84.62498501 -54.15965387 84.63467994 -57.75 84.25 C-60.25 82.6875 -60.25 82.6875 -61.75 80.25 C-61.60146936 76.01687689 -61.10931785 73.78897678 -58.75 70.25 C-59.24371094 69.76789063 -59.73742187 69.28578125 -60.24609375 68.7890625 C-61.20708984 67.84160156 -61.20708984 67.84160156 -62.1875 66.875 C-62.82558594 66.24851562 -63.46367188 65.62203125 -64.12109375 64.9765625 C-66.83175936 62.10338697 -67.34212455 59.48004222 -67.27325439 55.52429199 C-66.16155918 50.69237933 -62.19387474 47.51896232 -58.7734375 44.140625 C-57.93777252 43.29256287 -57.10210754 42.44450073 -56.24111938 41.57073975 C-54.46033669 39.77575038 -52.66919639 37.99098649 -50.86865234 36.21582031 C-48.17880074 33.55325497 -45.5398154 30.84714223 -42.90234375 28.1328125 C-31.84569115 16.98265374 -20.75790939 8.85758668 -6.54385376 2.14373779 C-2.58728112 0.17248541 -2.58728112 0.17248541 0 0 Z " fill="#393C54" transform="translate(151.75,67.75)"/>
<path d="M0 0 C0.515625 0.309375 1.03125 0.61875 1.5625 0.9375 C4.0731727 2.20801648 4.0731727 2.20801648 7.375 2.12890625 C11 3 11 3 13.37109375 6 C14.08722305 7.31885743 14.77447875 8.65366092 15.4375 10 C16.00090088 11.07761597 16.00090088 11.07761597 16.57568359 12.17700195 C17.74481044 14.43841047 18.87354247 16.71709196 20 19 C20.7014904 20.36866006 21.40330333 21.73715487 22.10546875 23.10546875 C44.01378861 66.76985799 47.45122849 120.61399642 32.09375 166.9140625 C22.41697405 194.60764502 7.80298695 218.47579535 -12 240 C-12.73089844 240.79792969 -13.46179688 241.59585938 -14.21484375 242.41796875 C-16 244 -16 244 -18.5625 244 C-23.46791296 242.57297078 -28.22151106 240.8003726 -33 239 C-36.71279469 237.76240177 -40.31306346 237.64391103 -44.1875 237.4375 C-45.31188477 237.37272461 -45.31188477 237.37272461 -46.45898438 237.30664062 C-48.30578375 237.20077315 -50.15286834 237.0999024 -52 237 C-52.13535156 236.15179688 -52.27070313 235.30359375 -52.41015625 234.4296875 C-55.24606718 218.97652016 -61.90671886 205.3101209 -75 196 C-73.69112457 192.25007191 -72.12807253 189.7690816 -69.5 186.8125 C-55.14365826 169.18509305 -46.20205559 146.15629313 -42 124 C-41.29875 123.90203125 -40.5975 123.8040625 -39.875 123.703125 C-29.97575452 122.14291783 -22.15337363 119.27419659 -16 111 C-10.87063254 102.16608938 -9.26166899 93.22941192 -11.6640625 83.23828125 C-14.99223071 73.78917759 -20.85653227 68.08534899 -29.66796875 63.6171875 C-31.93863801 62.80024416 -31.93863801 62.80024416 -33.9296875 63.5703125 C-37.3858064 65.95699084 -40.49455187 68.72236372 -43.63378906 71.50195312 C-46.54159026 74.03878693 -49.38111379 76.31397905 -52.70703125 78.28125 C-59.02207839 81.96386713 -59.02207839 81.96386713 -62.56005859 88.09667969 C-62.93095935 91.3723984 -62.94964682 94.58630222 -62.89892578 97.87963867 C-62.77738855 106.29484294 -65.12002982 112.45330464 -70.63671875 118.91796875 C-79.15852073 126.96302657 -88.66581495 127.63306465 -99.9375 127.5 C-101.24396484 127.51546875 -102.55042969 127.5309375 -103.89648438 127.546875 C-114.17597851 127.50548801 -122.77654586 125.88735339 -130.46875 118.703125 C-136.66123744 111.81556244 -138.87438905 104.20473329 -140.53515625 95.26953125 C-140.98365579 92.84996667 -140.98365579 92.84996667 -142 90 C-146.98136699 87.13194022 -152.43887115 87.38755614 -157.875 88.6875 C-160.68618873 90.42382245 -160.96033426 91.89862424 -162 95 C-162.33217364 96.76368387 -162.62299238 98.53558911 -162.875 100.3125 C-164.33293764 108.72107059 -167.89526764 116.11221861 -174.8515625 121.41015625 C-183.73159264 127.29017621 -191.93081035 127.36451387 -202.375 127.375 C-203.65117187 127.39949219 -204.92734375 127.42398438 -206.2421875 127.44921875 C-217.05655483 127.48273435 -224.30264044 125.30492995 -232.2734375 117.9375 C-235.67868078 114.11623152 -239.0294507 108.33945306 -238.9831543 103.08984375 C-238.93070557 102.37957031 -238.87825684 101.66929687 -238.82421875 100.9375 C-238.29208211 92.19227931 -238.29208211 92.19227931 -241.20751953 84.19482422 C-244.39144795 80.95343528 -248.16646329 78.5742991 -252.03076172 76.22070312 C-255.25800861 74.22017815 -258.27703628 71.96409779 -261.3125 69.6875 C-262.38113281 68.92824219 -263.44976562 68.16898437 -264.55078125 67.38671875 C-267 65 -267 65 -267.98046875 61.83203125 C-267.98691406 60.89746094 -267.99335938 59.96289062 -268 59 C-267.34 58.34 -266.68 57.68 -266 57 C-261.09983275 57.11993416 -258.21511871 60.0071649 -254.75 63.125 C-253.60112815 64.12339523 -252.45138484 65.12078852 -251.30078125 66.1171875 C-250.74084473 66.60670898 -250.1809082 67.09623047 -249.60400391 67.60058594 C-247.40762012 69.51682214 -245.19231382 71.40277276 -242.9375 73.25 C-242.26589844 73.81203125 -241.59429687 74.3740625 -240.90234375 74.953125 C-239.04419149 76.21290711 -239.04419149 76.21290711 -236.8515625 75.765625 C-234.68728422 74.87069136 -233.60778609 73.67768983 -232 72 C-228.94436803 70.98145601 -226.81498672 70.85548115 -223.61401367 70.82299805 C-222.51244431 70.81016281 -221.41087494 70.79732758 -220.27592468 70.78410339 C-219.08529922 70.77671646 -217.89467377 70.76932953 -216.66796875 70.76171875 C-214.8312133 70.74961113 -214.8312133 70.74961113 -212.95735168 70.73725891 C-210.36407894 70.72341973 -207.77078799 70.71269684 -205.17749023 70.70483398 C-201.21367889 70.68761373 -197.25069985 70.6437232 -193.28710938 70.59960938 C-190.7682353 70.58948312 -188.24935414 70.58096681 -185.73046875 70.57421875 C-184.54591599 70.55671066 -183.36136322 70.53920258 -182.14091492 70.52116394 C-175.77655294 70.53792266 -171.82469516 70.68862435 -167 75 C-166.401875 75.515625 -165.80375 76.03125 -165.1875 76.5625 C-164 78 -164 78 -163 81 C-161.5459375 80.505 -161.5459375 80.505 -160.0625 80 C-152.70224262 77.93318025 -146.76460493 78.54573365 -140 82 C-139.4225 81.0925 -138.845 80.185 -138.25 79.25 C-135.52834119 75.31871506 -133.59152852 72.53050951 -129 71 C-127.20694371 70.89213143 -125.41021918 70.84122573 -123.61401367 70.82299805 C-122.51244431 70.81016281 -121.41087494 70.79732758 -120.27592468 70.78410339 C-119.08529922 70.77671646 -117.89467377 70.76932953 -116.66796875 70.76171875 C-115.44346512 70.753647 -114.21896149 70.74557526 -112.95735168 70.73725891 C-110.36407894 70.72341973 -107.77078799 70.71269684 -105.17749023 70.70483398 C-101.21367889 70.68761373 -97.25069985 70.6437232 -93.28710938 70.59960938 C-90.7682353 70.58948312 -88.24935414 70.58096681 -85.73046875 70.57421875 C-84.54591599 70.55671066 -83.36136322 70.53920258 -82.14091492 70.52116394 C-75.73535111 70.53803115 -71.87799741 70.72048712 -67 75 C-66.01 75.66 -65.02 76.32 -64 77 C-63.51273438 76.55011719 -63.02546875 76.10023438 -62.5234375 75.63671875 C-57.72723098 71.28525138 -52.79746626 67.11762136 -47.75 63.0625 C-47.16009277 62.5780542 -46.57018555 62.0936084 -45.96240234 61.59448242 C-42.70595264 59.00929015 -40.18766961 57.36996329 -36 57 C-35.67 54.69 -35.34 52.38 -35 50 C-33.77004051 50.9156026 -32.54107614 51.83254203 -31.3125 52.75 C-30.57515625 53.29398438 -29.8378125 53.83796875 -29.078125 54.3984375 C-27 56 -27 56 -24.5625 58.375 C-20.78087257 60.7731052 -17.35699957 60.79074402 -13 60 C-9.52514162 57.92987161 -7.25647722 55.88365688 -6 52 C-5.43291107 48.88101089 -5.51161207 46.88161204 -7.0625 44.08203125 C-11.35439402 38.05238666 -16.79698335 33.11983004 -22.95703125 29.04296875 C-30.49095446 23.52067074 -30.49095446 23.52067074 -31.48583984 18.59423828 C-31.95369316 12.70913606 -31.61024153 6.86343958 -31 1 C-29.87150349 1.94791448 -28.74572159 2.89906134 -27.62109375 3.8515625 C-26.99388428 4.38088379 -26.3666748 4.91020508 -25.72045898 5.45556641 C-24 7 -24 7 -22.0625 9.375 C-19.50426474 11.39057929 -17.39334335 11.74082758 -14.15625 11.58984375 C-9.85761612 10.41394934 -7.02394394 7.12429606 -4 4 C-3.175 3.195625 -2.35 2.39125 -1.5 1.5625 C-0.7575 0.7890625 -0.7575 0.7890625 0 0 Z " fill="#45A79A" transform="translate(407,149)"/>
<path d="M0 0 C3.42280517 1.46582015 5.56480483 3.38062255 8.125 6.0625 C11.19187895 9.26246993 12.66276423 10.78604228 17.125 11.5 C21.94868728 10.87758874 23.70337034 9.12931232 27.10546875 5.82421875 C28.96817023 4.03064845 30.90429865 2.51020607 33 1 C34.06120474 17.86136415 34.06120474 17.86136415 31.72265625 22.57421875 C29.9234003 24.32451535 28.10745534 25.64035139 26 27 C24.67304724 28.1502016 23.36071966 29.31746328 22.0625 30.5 C19.9769226 32.30506114 17.88301901 34.09985679 15.78515625 35.890625 C15.07230469 36.50421875 14.35945313 37.1178125 13.625 37.75 C12.65433594 38.57757813 12.65433594 38.57757813 11.6640625 39.421875 C9.44711396 41.52433324 8.11014887 43.24432752 7.6640625 46.3046875 C7.57119906 51.96601408 7.57119906 51.96601408 9.875 57.0625 C13.15530753 60.05336863 15.88259511 60.64154513 20.36328125 60.60546875 C27.94510305 58.86445782 34.04654226 51.1478765 39.3046875 45.69921875 C41.84719421 43.15085373 44.57068955 40.82437852 47.30078125 38.48046875 C48.57729445 37.36828828 49.80283014 36.19716986 51 35 C53.66680737 34.7914449 56.23114743 34.70878801 58.90007019 34.71238708 C60.13866672 34.70241537 60.13866672 34.70241537 61.4022854 34.69224221 C64.18513368 34.67246709 66.96782156 34.66715981 69.75073242 34.66186523 C71.73964869 34.65097601 73.72856082 34.63930495 75.71746826 34.62690735 C81.13292767 34.59633466 86.54834447 34.57936728 91.96387267 34.56669116 C95.34596583 34.55861644 98.72804662 34.54843618 102.11013222 34.53767586 C112.68794077 34.5049363 123.26571948 34.48104407 133.84357184 34.468862 C146.06111791 34.45460924 158.2780861 34.41075056 170.49544066 34.34136051 C179.93331242 34.28960259 189.37101976 34.26469049 198.80903131 34.26003987 C204.44834833 34.25663883 210.08708168 34.24173574 215.72624779 34.19875908 C221.03290754 34.159027 226.33857578 34.15259473 231.64533997 34.17165947 C233.59201385 34.17292645 235.53873819 34.16223521 237.48526955 34.13864517 C252.22857526 33.97018581 252.22857526 33.97018581 256.66108131 36.54701424 C258.40472116 38.27854318 259.6754594 39.94353757 261 42 C262.46526483 43.14304768 263.94140406 44.27261352 265.4375 45.375 C267.82684186 47.39604254 268.86601325 48.35083941 269.50390625 51.44140625 C269.50039541 53.68483122 269.36117259 55.78781788 269 58 C268.30261719 57.896875 267.60523438 57.79375 266.88671875 57.6875 C262.8397663 58.1256004 260.70318229 60.35532402 257.8125 63 C256.66616405 64.00742085 255.51901954 65.01392235 254.37109375 66.01953125 C253.80503418 66.52178223 253.23897461 67.0240332 252.65576172 67.54150391 C250.27065734 69.64244958 247.83520291 71.67526355 245.375 73.6875 C244.59898437 74.33074219 243.82296875 74.97398437 243.0234375 75.63671875 C241 77 241 77 238 77 C236.29749607 75.71274093 234.62935241 74.37868281 233 73 C230.43413062 71.71706531 228.58468451 71.85898071 225.71166992 71.83886719 C224.60679733 71.82925964 223.50192474 71.8196521 222.36357117 71.80975342 C221.16464737 71.80550354 219.96572357 71.80125366 218.73046875 71.796875 C216.88803337 71.78832489 216.88803337 71.78832489 215.00837708 71.77960205 C212.40492619 71.7701413 209.80146328 71.76361382 207.19799805 71.75976562 C203.21451852 71.75321205 199.23140564 71.71905331 195.24804688 71.6875 C192.72135724 71.68096961 190.1946639 71.67571928 187.66796875 71.671875 C186.47511765 71.6595282 185.28226654 71.6471814 184.05326843 71.63446045 C182.38177483 71.6389621 182.38177483 71.6389621 180.67651367 71.64355469 C179.69881516 71.63990906 178.72111664 71.63626343 177.71379089 71.63250732 C173.31941522 72.22757929 169.77313774 74.56659137 167 78 C165.80972016 80.59915538 165.80972016 80.59915538 165 83 C163.865625 82.505 162.73125 82.01 161.5625 81.5 C154.44543967 78.84682027 148.06435118 79.59511449 141 82 C140.15364583 80.56770833 139.30729167 79.13541667 138.4609375 77.703125 C135.47324172 74.22014276 132.89266735 72.26332594 128.32989502 71.62850952 C124.99358636 71.48710232 121.6790379 71.47206961 118.33984375 71.50390625 C116.50589806 71.5017234 116.50589806 71.5017234 114.63490295 71.49949646 C112.05532442 71.50115351 109.47573581 71.51269289 106.89624023 71.53344727 C102.94797812 71.5624231 99.0010573 71.55404639 95.05273438 71.54101562 C92.54426431 71.54725259 90.03579848 71.55564319 87.52734375 71.56640625 C86.34704086 71.56347061 85.16673798 71.56053497 83.95066833 71.55751038 C82.84925003 71.57019455 81.74783173 71.58287872 80.61303711 71.59594727 C79.64740341 71.60135025 78.68176971 71.60675323 77.68687439 71.61231995 C73.55177759 72.20895913 70.91372085 74.08627915 68 77 C64.73733653 76.65236323 62.82642863 75.30804587 60.35546875 73.234375 C59.67806641 72.67363281 59.00066406 72.11289063 58.30273438 71.53515625 C57.60470703 70.94605469 56.90667969 70.35695313 56.1875 69.75 C53.47298215 67.48152968 50.74820069 65.22758091 48 63 C47.36271973 62.48115234 46.72543945 61.96230469 46.06884766 61.42773438 C42.83650498 58.74127429 42.83650498 58.74127429 38.86010742 58.18652344 C38.24627197 58.4549707 37.63243652 58.72341797 37 59 C36.67 59.99 36.34 60.98 36 62 C33.9609375 63.17578125 33.9609375 63.17578125 31.375 64.3125 C22.22905298 68.72238601 17.91457392 73.60178741 14 83 C11.3551575 90.93452751 12.90394752 99.41400128 16 107 C19.58345185 113.76874238 25.27387793 119.32522607 32.5625 121.875 C36.34634986 122.94577696 40.0928686 123.58434772 44 124 C45.64338402 128.84365816 47.21497031 133.69615873 48.69335938 138.59301758 C54.89430156 158.94413817 63.3628822 178.49711107 77 195 C72.38844274 199.67440642 72.38844274 199.67440642 70.26171875 201.45703125 C60.16426632 210.15136374 55.90699944 224.28667037 54 237 C53.01902344 237.01417969 52.03804688 237.02835938 51.02734375 237.04296875 C42.08499689 237.31087079 34.59245789 238.71852057 26.20703125 241.84375 C20.67897235 243.83681387 20.67897235 243.83681387 18 244 C16.078125 242.734375 16.078125 242.734375 14.25 240.75 C13.56164062 240.00492188 12.87328125 239.25984375 12.1640625 238.4921875 C-23.41100466 197.52306684 -40.46253035 150.29643916 -39 96 C-38.98066406 95.28054199 -38.96132812 94.56108398 -38.94140625 93.81982422 C-38.62797629 84.32704474 -37.18988471 75.22989372 -35 66 C-34.73678955 64.8855249 -34.73678955 64.8855249 -34.46826172 63.74853516 C-29.5674297 43.36293451 -22.03020414 24.59314708 -11.421875 6.4609375 C-11.04514648 5.81431152 -10.66841797 5.16768555 -10.28027344 4.50146484 C-9 3 -9 3 -5.3125 2.125 C-4.219375 2.08375 -3.12625 2.0425 -2 2 C-1.34 1.34 -0.68 0.68 0 0 Z " fill="#45A79A" transform="translate(103,149)"/>
<path d="M0 0 C0 0.66 0 1.32 0 2 C0.58555664 2.27166992 1.17111328 2.54333984 1.77441406 2.82324219 C3.9695197 3.98388382 5.70117239 5.24669053 7.609375 6.828125 C8.61871094 7.65763672 8.61871094 7.65763672 9.6484375 8.50390625 C10.34195313 9.08011719 11.03546875 9.65632812 11.75 10.25 C13.1185136 11.38175554 14.48830463 12.51196822 15.859375 13.640625 C16.53516602 14.20628174 17.21095703 14.77193848 17.90722656 15.35473633 C19.97662222 17.04011624 19.97662222 17.04011624 22.27246094 18.43237305 C27.64980691 21.87839345 27.64980691 21.87839345 28.65722656 25.10498047 C28.86932472 27.54001082 28.85241267 29.87090524 28.75 32.3125 C28.79077069 39.34109945 28.90036813 45.01427552 33 51 C33.43441406 51.64066406 33.86882812 52.28132813 34.31640625 52.94140625 C38.49141481 58.39053186 43.59837514 60.86612505 50 63 C54.70405771 63.26503996 59.414297 63.23156281 64.125 63.25 C65.41921875 63.270625 66.7134375 63.29125 68.046875 63.3125 C79.11883481 63.35759963 87.85251768 61.9162219 96 54 C99.88192697 49.06384413 102.39557882 43.81772155 103.3828125 37.58203125 C104.31272247 31.85885809 105.19714343 28.72221384 110 25 C113.19598065 23.40200967 116.52322756 23.63226445 120 24 C124.22327552 25.78316078 126.17104212 27.81952484 128 32 C128.34359178 33.7650642 128.65263601 35.53701149 128.9375 37.3125 C130.19722333 45.04782593 133.32513782 52.54902877 139.8203125 57.34375 C147.89708522 62.62589794 155.06958637 63.4247127 164.61083984 63.48046875 C166.59912307 63.49974907 168.58683731 63.56209574 170.57421875 63.625 C180.24185974 63.70241855 188.10210895 61.86470239 195.70166016 55.59643555 C197.25528608 53.99678038 197.25528608 53.99678038 199 51 C199.37640625 50.43539062 199.7528125 49.87078125 200.140625 49.2890625 C202.83018153 44.49710616 203.10122344 40.41145763 203.06567383 35.0402832 C203.05232558 24.35655008 203.05232558 24.35655008 205.9375 20.2265625 C208.27249048 18.35718024 210.64213638 16.73659146 213.19628906 15.18408203 C216.84327918 12.78994261 220.09952342 9.86287985 223.4375 7.0625 C224.78595547 5.94388229 226.13859343 4.83028011 227.49609375 3.72265625 C228.36512329 3.00734741 228.36512329 3.00734741 229.25170898 2.27758789 C231.11150631 0.91851522 232.86947707 -0.12162888 235 -1 C242.80832651 0.97864056 248.52828954 6.56032479 253 13 C257.28044694 20.26708648 258.10734543 27.69980907 257 36 C254.57466085 45.1984061 249.98222164 52.27603988 241.84765625 57.33984375 C236.11173289 60.3413232 231.50954835 61.12518362 225 61 C224.94501343 61.91640259 224.94501343 61.91640259 224.88891602 62.85131836 C224.40068539 69.15727851 223.10921394 74.63721373 220.9375 80.5625 C220.62876953 81.42093506 220.32003906 82.27937012 220.00195312 83.16381836 C208.9044039 113.32346554 189.85917881 141.04460937 162 158 C161.34 158 160.68 158 160 158 C159.99857498 157.22849609 159.99714996 156.45699219 159.99568176 155.66210938 C159.97779748 148.36505504 159.93602497 141.0687019 159.86790943 133.7719574 C159.83372554 130.02123129 159.80854303 126.27090874 159.80444336 122.52001953 C159.80014165 118.89511002 159.77152696 115.27110952 159.72656822 111.64648438 C159.71365242 110.26877146 159.70926448 108.89094943 159.71384621 107.51318359 C159.73383678 99.67131884 159.72828059 92.89251198 154 87 C145.09459139 80.68134241 133.50284572 80.62556134 123 80 C122.71125 80.639375 122.4225 81.27875 122.125 81.9375 C121 84 121 84 119 85 C115.58915179 85.2965955 113.62012782 85.35902137 110.625 83.625 C110.08875 83.08875 109.5525 82.5525 109 82 C109 81.34 109 80.68 109 80 C105.8516964 80.22335478 102.70743613 80.48366808 99.5625 80.75 C98.68400391 80.811875 97.80550781 80.87375 96.90039062 80.9375 C89.28585987 81.61184959 82.94768632 83.49133079 77.0625 88.5 C73.46493949 92.86067941 72.74712 95.74768037 72.68115234 101.42089844 C72.66128265 102.72194519 72.64141296 104.02299194 72.62094116 105.36346436 C72.60906559 106.77876618 72.59740268 108.1940698 72.5859375 109.609375 C72.56722203 111.06098528 72.54764833 112.51258473 72.5272522 113.96417236 C72.47596478 117.77811287 72.43632108 121.59208862 72.39910889 125.40618896 C72.35904788 129.30082904 72.30796513 133.19532287 72.2578125 137.08984375 C72.16109341 144.7264621 72.07667595 152.36315131 72 160 C70.39612107 159.04847539 68.79359805 158.09466503 67.19165039 157.13989258 C66.29910049 156.60898514 65.4065506 156.0780777 64.48695374 155.53108215 C45.84548016 144.05454075 32.85429564 126.1090904 23 107 C22.67902344 106.37867188 22.35804688 105.75734375 22.02734375 105.1171875 C15.08610135 91.46704554 10.33738227 76.93039434 7 62 C6.0821875 61.85304688 5.164375 61.70609375 4.21875 61.5546875 C-7.13391892 59.4797249 -14.35799227 55.52712984 -21 46 C-25.26148723 38.22611509 -26.4552599 28.96130563 -24.3515625 20.34375 C-20.97764872 11.00060416 -14.82121364 4.46813648 -6 0 C-3 -1 -3 -1 0 0 Z " fill="#FED7C8" transform="translate(140,212)"/>
<path d="M0 0 C3.32436221 1.10812074 3.92685332 1.85536627 6.0625 4.5 C12.94511026 12.5633091 20.74792645 18.76682157 29.62890625 24.46875 C32 26 32 26 33 27 C33.04063832 28.66617115 33.042721 30.33388095 33 32 C33.66 32.33 34.32 32.66 35 33 C34.319375 34.2684375 34.319375 34.2684375 33.625 35.5625 C27.97654385 47.51115723 28.887786 60.60057611 33 73 C36.77198759 82.31449998 43.16388575 88.88281203 50 96 C51.17719931 97.3240433 52.34539578 98.65620761 53.5 100 C56.94564508 103.97959492 60.51122117 107.84497765 64.09375 111.70117188 C66.19389884 113.97381132 68.08611078 116.13325311 69.76953125 118.73828125 C72.56213405 121.97921796 72.56213405 121.97921796 81 123 C81 132.57 81 142.14 81 152 C20.15078683 153.05824719 -36.73214852 131.08958266 -83 92 C-82.04923468 86.54805903 -79.98241858 81.81432716 -77.8125 76.75 C-77.43802734 75.84636719 -77.06355469 74.94273437 -76.67773438 74.01171875 C-70.67918575 59.95103984 -62.36487114 49.89786311 -48 44 C-47.24332031 43.6803125 -46.48664063 43.360625 -45.70703125 43.03125 C-37.98051244 40.23572561 -30.09144617 40.72894659 -22 41 C-21.97421875 40.40574219 -21.9484375 39.81148438 -21.921875 39.19921875 C-20.86150723 23.70338978 -13.55364704 11.1441021 -2 1 C-1.34 0.67 -0.68 0.34 0 0 Z " fill="#F7DB25" transform="translate(179,345)"/>
<path d="M0 0 C4.90016725 0.11993416 7.78488129 3.0071649 11.25 6.125 C12.39887185 7.12339523 13.54861516 8.12078852 14.69921875 9.1171875 C15.53912354 9.85146973 15.53912354 9.85146973 16.39599609 10.60058594 C18.59237988 12.51682214 20.80768618 14.40277276 23.0625 16.25 C23.73410156 16.81203125 24.40570313 17.3740625 25.09765625 17.953125 C26.95580851 19.21290711 26.95580851 19.21290711 29.1484375 18.765625 C31.31271578 17.87069136 32.39221391 16.67768983 34 15 C37.05563197 13.98145601 39.18501328 13.85548115 42.38598633 13.82299805 C43.48755569 13.81016281 44.58912506 13.79732758 45.72407532 13.78410339 C47.5100135 13.77302299 47.5100135 13.77302299 49.33203125 13.76171875 C51.1687867 13.74961113 51.1687867 13.74961113 53.04264832 13.73725891 C55.63592106 13.72341973 58.22921201 13.71269684 60.82250977 13.70483398 C64.78632111 13.68761373 68.74930015 13.6437232 72.71289062 13.59960938 C75.2317647 13.58948312 77.75064586 13.58096681 80.26953125 13.57421875 C81.45408401 13.55671066 82.63863678 13.53920258 83.85908508 13.52116394 C90.22344706 13.53792266 94.17530484 13.68862435 99 18 C99.598125 18.515625 100.19625 19.03125 100.8125 19.5625 C102 21 102 21 103 24 C103.969375 23.67 104.93875 23.34 105.9375 23 C113.29775738 20.93318025 119.23539507 21.54573365 126 25 C126.5775 24.0925 127.155 23.185 127.75 22.25 C130.47165881 18.31871506 132.40847148 15.53050951 137 14 C138.79305629 13.89213143 140.58978082 13.84122573 142.38598633 13.82299805 C143.48755569 13.81016281 144.58912506 13.79732758 145.72407532 13.78410339 C147.5100135 13.77302299 147.5100135 13.77302299 149.33203125 13.76171875 C150.55653488 13.753647 151.78103851 13.74557526 153.04264832 13.73725891 C155.63592106 13.72341973 158.22921201 13.71269684 160.82250977 13.70483398 C164.78632111 13.68761373 168.74930015 13.6437232 172.71289062 13.59960938 C175.2317647 13.58948312 177.75064586 13.58096681 180.26953125 13.57421875 C181.45408401 13.55671066 182.63863678 13.53920258 183.85908508 13.52116394 C190.26464889 13.53803115 194.12200259 13.72048712 199 18 C199.99 18.66 200.98 19.32 202 20 C202.48726562 19.55011719 202.97453125 19.10023438 203.4765625 18.63671875 C208.27276902 14.28525138 213.20253374 10.11762136 218.25 6.0625 C219.13486084 5.3358313 219.13486084 5.3358313 220.03759766 4.59448242 C223.24476015 2.0484177 225.81738701 0.11123971 230 0 C230.99 0.99 230.99 0.99 232 2 C231.83297508 5.09249171 231.33672682 6.61571723 229.28515625 8.95703125 C228.55167969 9.56933594 227.81820312 10.18164062 227.0625 10.8125 C225.84433594 11.83923828 225.84433594 11.83923828 224.6015625 12.88671875 C223.74304688 13.58410156 222.88453125 14.28148437 222 15 C220.74316406 16.03060547 220.74316406 16.03060547 219.4609375 17.08203125 C218.21183594 18.09330078 218.21183594 18.09330078 216.9375 19.125 C216.1125 19.80175781 215.2875 20.47851562 214.4375 21.17578125 C212 23 212 23 209.625 24.16796875 C206.95388714 25.56553316 205.65630302 26.44744814 204 29 C203.3232654 32.86298573 203.38528885 36.76426748 203.35571289 40.67578125 C203.2117735 49.10721416 200.8963529 55.43410674 195.36328125 61.91796875 C186.84147927 69.96302657 177.33418505 70.63306465 166.0625 70.5 C164.75603516 70.51546875 163.44957031 70.5309375 162.10351562 70.546875 C151.82402149 70.50548801 143.22345414 68.88735339 135.53125 61.703125 C129.33876256 54.81556244 127.12561095 47.20473329 125.46484375 38.26953125 C125.01634421 35.84996667 125.01634421 35.84996667 124 33 C119.01863301 30.13194022 113.56112885 30.38755614 108.125 31.6875 C105.31381127 33.42382245 105.03966574 34.89862424 104 38 C103.66782636 39.76368387 103.37700762 41.53558911 103.125 43.3125 C101.66706236 51.72107059 98.10473236 59.11221861 91.1484375 64.41015625 C82.26840736 70.29017621 74.06918965 70.36451387 63.625 70.375 C62.34882813 70.39949219 61.07265625 70.42398438 59.7578125 70.44921875 C48.94344517 70.48273435 41.69735956 68.30492995 33.7265625 60.9375 C30.32131922 57.11623152 26.9705493 51.33945306 27.0168457 46.08984375 C27.0955188 45.02443359 27.0955188 45.02443359 27.17578125 43.9375 C27.70791789 35.19227931 27.70791789 35.19227931 24.79248047 27.19482422 C21.60855205 23.95343528 17.83353671 21.5742991 13.96923828 19.22070312 C10.74199139 17.22017815 7.72296372 14.96409779 4.6875 12.6875 C3.61886719 11.92824219 2.55023438 11.16898438 1.44921875 10.38671875 C-1 8 -1 8 -1.98046875 4.83203125 C-1.98691406 3.89746094 -1.99335938 2.96289062 -2 2 C-1.34 1.34 -0.68 0.68 0 0 Z " fill="#535671" transform="translate(141,206)"/>
<path d="M0 0 C1.99086049 -0.00752742 3.98170573 -0.02112449 5.9724884 -0.04026794 C11.3350142 -0.07393994 16.69340563 -0.02099085 22.05543137 0.05040336 C27.68281444 0.1122739 33.3100902 0.09955733 38.93774414 0.09687805 C48.37634814 0.10341348 57.81336708 0.16392881 67.25146484 0.25976562 C78.15551694 0.37008035 89.05784018 0.4067427 99.96240997 0.40161675 C111.5962786 0.39688718 123.22948342 0.44545144 134.86315155 0.50974298 C138.20780468 0.52464425 141.55235041 0.52962855 144.89703369 0.53241539 C150.15086133 0.53945418 155.40324183 0.58224173 160.65659142 0.65257835 C162.58219221 0.6729935 164.50795959 0.6816429 166.43366432 0.6775856 C182.80101109 0.65615209 182.80101109 0.65615209 187.32080078 5.14533997 C188.16569712 6.31103055 188.98800751 7.49388068 189.7734375 8.70043945 C191.23870233 9.84348714 192.71484156 10.97305297 194.2109375 12.07543945 C196.60027936 14.09648199 197.63945075 15.05127886 198.27734375 18.1418457 C198.27383291 20.38527067 198.13461009 22.48825733 197.7734375 24.70043945 C197.07605469 24.59731445 196.37867188 24.49418945 195.66015625 24.38793945 C191.6132038 24.82603985 189.47661979 27.05576348 186.5859375 29.70043945 C185.43960155 30.7078603 184.29245704 31.7143618 183.14453125 32.7199707 C182.57847168 33.22222168 182.01241211 33.72447266 181.42919922 34.24194336 C179.04409484 36.34288903 176.60864041 38.37570301 174.1484375 40.38793945 C173.37242187 41.03118164 172.59640625 41.67442383 171.796875 42.3371582 C169.7734375 43.70043945 169.7734375 43.70043945 166.7734375 43.70043945 C165.07093357 42.41318038 163.40278991 41.07912226 161.7734375 39.70043945 C159.20756812 38.41750476 157.35812201 38.55942016 154.48510742 38.53930664 C153.38023483 38.5296991 152.27536224 38.52009155 151.13700867 38.51019287 C149.93808487 38.50594299 148.73916107 38.50169312 147.50390625 38.49731445 C145.66147087 38.48876434 145.66147087 38.48876434 143.78181458 38.4800415 C141.17836369 38.47058076 138.57490078 38.46405327 135.97143555 38.46020508 C131.98795602 38.45365151 128.00484314 38.41949276 124.02148438 38.38793945 C121.49479474 38.38140906 118.9681014 38.37615873 116.44140625 38.37231445 C115.24855515 38.35996765 114.05570404 38.34762085 112.82670593 38.3348999 C111.15521233 38.33940155 111.15521233 38.33940155 109.44995117 38.34399414 C108.47225266 38.34034851 107.49455414 38.33670288 106.48722839 38.33294678 C102.09285272 38.92801874 98.54657524 41.26703083 95.7734375 44.70043945 C94.58315766 47.29959483 94.58315766 47.29959483 93.7734375 49.70043945 C92.6390625 49.20543945 91.5046875 48.71043945 90.3359375 48.20043945 C83.21887717 45.54725972 76.83778868 46.29555394 69.7734375 48.70043945 C68.92708333 47.26814779 68.08072917 45.83585612 67.234375 44.40356445 C64.24667922 40.92058221 61.66610485 38.96376539 57.10333252 38.32894897 C53.76702386 38.18754177 50.4524754 38.17250906 47.11328125 38.2043457 C45.27933556 38.20216286 45.27933556 38.20216286 43.40834045 38.19993591 C40.82876192 38.20159297 38.24917331 38.21313234 35.66967773 38.23388672 C31.72141562 38.26286256 27.7744948 38.25448585 23.82617188 38.24145508 C21.31770181 38.24769204 18.80923598 38.25608264 16.30078125 38.2668457 C15.12047836 38.26391006 13.94017548 38.26097443 12.72410583 38.25794983 C11.07197838 38.27697609 11.07197838 38.27697609 9.38647461 38.29638672 C7.93802406 38.3044912 7.93802406 38.3044912 6.46031189 38.3127594 C2.32521509 38.90939859 -0.31284165 40.78671861 -3.2265625 43.70043945 C-6.48922597 43.35280268 -8.40013387 42.00848532 -10.87109375 39.93481445 C-11.54849609 39.37407227 -12.22589844 38.81333008 -12.92382812 38.2355957 C-13.62185547 37.64649414 -14.31988281 37.05739258 -15.0390625 36.45043945 C-23.27119496 28.45351514 -23.27119496 28.45351514 -33.1640625 24.88793945 C-33.8446875 25.15606445 -34.5253125 25.42418945 -35.2265625 25.70043945 C-35.708418 21.47339338 -36.13061328 17.46638863 -34.14622879 13.5901438 C-32.5521625 11.59038893 -30.88879716 9.89590877 -28.99072266 8.18171692 C-28.31989969 7.57369824 -27.64907673 6.96567957 -26.9579258 6.33923608 C-18.65853964 -0.46205012 -10.29676206 -0.22829408 0 0 Z " fill="#EECBC0" transform="translate(174.2265625,182.299560546875)"/>
<path d="M0 0 C2.21875 1.99609375 2.21875 1.99609375 4 4 C7 4.66666667 7 4.66666667 10 4 C10.59554687 3.33742188 11.19109375 2.67484375 11.8046875 1.9921875 C15.39753143 -1.26822247 18.97152814 -0.41375045 23.61328125 -0.2578125 C32.40544137 0.41148689 41.07750136 1.87105406 47.375 8.5 C50.45891934 13.2444913 51.24780464 16.11030923 51.22705078 21.87988281 C51.22734283 22.56321686 51.22763489 23.2465509 51.22793579 23.95059204 C51.22654624 26.20156706 51.21100302 28.45220804 51.1953125 30.703125 C51.19158103 32.26682352 51.18873469 33.83052438 51.18673706 35.39422607 C51.17911114 39.50421638 51.15947164 43.6140647 51.1373291 47.72399902 C51.11684822 51.92014648 51.10773055 56.11631694 51.09765625 60.3125 C51.07622472 68.54173173 51.04210139 76.77084819 51 85 C48.63713746 85.79832697 46.27342979 86.59398482 43.90917969 87.38818359 C43.24860565 87.61166977 42.58803162 87.83515594 41.90744019 88.06541443 C30.78805385 91.79336781 20.50169378 93.50990565 8.75 93.375 C7.48164307 93.36629883 6.21328613 93.35759766 4.90649414 93.34863281 C-9.39198981 93.12591784 -24.01136524 91.49431738 -37 85 C-37.1161555 76.01140837 -37.20484692 67.02307744 -37.25906086 58.0338974 C-37.28508888 53.8592415 -37.32036077 49.68510133 -37.37719727 45.51074219 C-37.43176232 41.47769648 -37.46147159 37.44514494 -37.47438622 33.41175842 C-37.48358248 31.87761156 -37.50154075 30.34348994 -37.52865028 28.80955505 C-37.79412149 13.15747431 -37.79412149 13.15747431 -32 7 C-24.05844368 -0.16677034 -10.22334848 -1.6731511 0 0 Z " fill="#7F3838" transform="translate(249,292)"/>
<path d="M0 0 C4.07658849 0.89823136 8.15031527 1.79739877 12.2109375 2.765625 C13.31695312 3.02859375 14.42296875 3.2915625 15.5625 3.5625 C17.11130859 3.93568359 17.11130859 3.93568359 18.69140625 4.31640625 C37.923897 8.29006136 58.33453794 7.37381467 77.01464844 1.55126953 C79.98797554 0.72567034 82.937162 0.35153945 86 0 C89.69111852 6.8789027 91.36112116 13.13287252 91.25 20.9375 C91.23658569 22.00170166 91.23658569 22.00170166 91.22290039 23.08740234 C91.11200497 28.07597232 90.90465968 32.38420312 89 37 C88.56945312 38.04414063 88.13890625 39.08828125 87.6953125 40.1640625 C83.51020792 49.35527304 78.04001381 55.85553495 71 63 C69.77872185 64.36351536 68.5685515 65.73714941 67.375 67.125 C64.03882698 70.97197463 60.62989587 74.75035448 57.21484375 78.52734375 C54.56850387 81.48172319 51.98079538 84.4835572 49.41015625 87.50390625 C47.39994641 89.63662196 46.17179464 89.97657346 43.25 90.375 C36.80143685 89.63093502 33.04622514 84.05754567 29.05078125 79.37109375 C26.59109847 76.52723195 24.04913246 73.76328722 21.5 71 C19.66509113 69.0014371 17.83247784 67.00079432 16 65 C15.34644531 64.28714844 14.69289062 63.57429688 14.01953125 62.83984375 C1.29350999 48.65775598 -5.56376021 35.76391785 -5.33203125 16.48828125 C-4.76427318 10.52348172 -2.6600341 5.32006819 0 0 Z " fill="#FABFA9" transform="translate(213,378)"/>
<path d="M0 0 C0.85353058 0.00045319 1.70706116 0.00090637 2.5864563 0.00137329 C3.9278492 -0.00366463 3.9278492 -0.00366463 5.29634094 -0.00880432 C8.26814137 -0.01834461 11.23988563 -0.02025896 14.21170044 -0.02133179 C16.26814294 -0.02454219 18.32458521 -0.0279061 20.38102722 -0.03141785 C24.69788137 -0.0374168 29.01471547 -0.03925696 33.33157349 -0.03866577 C38.87475999 -0.0385641 44.41781854 -0.05221837 49.96097469 -0.06943798 C54.20992122 -0.08053314 58.45883657 -0.08258575 62.7077961 -0.08205605 C64.7520142 -0.08323984 66.79623301 -0.08768382 68.84043694 -0.09538841 C71.69467107 -0.10513847 74.5486243 -0.10233011 77.40286255 -0.09628296 C78.2543689 -0.10190247 79.10587524 -0.10752197 79.98318481 -0.11331177 C85.8310414 -0.08167833 85.8310414 -0.08167833 88.05935669 2.14663696 C87.50380113 6.70219252 87.50380113 6.70219252 86.05935669 8.14663696 C84.21043723 8.38027577 82.35447637 8.55967331 80.49685669 8.70913696 C77.80529419 8.92569946 77.80529419 8.92569946 75.05935669 9.14663696 C73.07935669 15.74663696 71.09935669 22.34663696 69.05935669 29.14663696 C75.19328323 28.87246325 75.19328323 28.87246325 81.32254028 28.51602173 C87.85914997 28.37083807 91.37254558 30.17355707 96.47927856 34.14395142 C99.16476894 36.22845913 101.92774047 38.02667682 104.81326294 39.82241821 C106.24702271 40.7225061 106.24702271 40.7225061 107.70974731 41.64077759 C109.68522304 42.8742906 111.66182385 44.10600327 113.63943481 45.33609009 C115.05579224 46.22651001 115.05579224 46.22651001 116.50076294 47.13491821 C117.35355835 47.66641479 118.20635376 48.19791138 119.08499146 48.74551392 C121.05935669 50.14663696 121.05935669 50.14663696 122.05935669 52.14663696 C67.27935669 52.14663696 12.49935669 52.14663696 -43.94064331 52.14663696 C-41.07898121 49.28497486 -39.32406279 47.57930983 -36.03439331 45.63101196 C-35.29729126 45.18797729 -34.56018921 44.74494263 -33.80075073 44.28848267 C-32.19444928 43.3411852 -30.58782874 42.39442864 -28.98092651 41.44815063 C-24.39035623 38.71861004 -20.28189167 35.8314276 -16.12814331 32.45913696 C-8.07024581 26.84718282 1.7172466 28.66755439 11.05935669 29.14663696 C8.08935669 19.24663696 8.08935669 19.24663696 5.05935669 9.14663696 C2.25987752 8.95132446 -0.53960164 8.75601196 -3.33908081 8.56069946 C-5.94064331 8.14663696 -5.94064331 8.14663696 -7.94064331 6.14663696 C-7.18836797 -0.02202079 -6.03992547 0.03334279 0 0 Z " fill="#393C54" transform="translate(215.94064331054688,71.85336303710938)"/>
<path d="M0 0 C-0.41975098 0.48573486 -0.83950195 0.97146973 -1.27197266 1.47192383 C-2.32004823 2.68844631 -3.36155501 3.91064206 -4.3984375 5.13671875 C-5.68114568 6.62904021 -7.01965662 8.07332276 -8.375 9.5 C-10.6796138 13.0455597 -10.77608277 14.83737425 -10 19 C-8.06986026 22.05717939 -5.56288943 24.46604642 -3 27 C-1.87972727 28.12061304 -0.75997547 29.24174699 0.359375 30.36328125 C2.14256143 32.14866583 3.92921484 33.92937835 5.73120117 35.69580078 C7.17167817 37.11291869 8.58823934 38.55427216 10 40 C10 40.33 10 40.66 10 41 C1.51384139 41.78034788 -3.40721128 40.44842821 -10.3125 35.5625 C-11.11993652 35.02133545 -11.92737305 34.4801709 -12.75927734 33.92260742 C-14.39715494 32.82437829 -16.02879542 31.71678547 -17.65380859 30.59960938 C-21.09256159 28.25510265 -24.6083952 26.03763087 -28.125 23.8125 C-33.82549905 20.17450095 -33.82549905 20.17450095 -35 19 C-36.48638992 18.84344973 -37.97949127 18.74933057 -39.47265625 18.68359375 C-40.82133789 18.62075195 -40.82133789 18.62075195 -42.19726562 18.55664062 C-43.61555664 18.49766602 -43.61555664 18.49766602 -45.0625 18.4375 C-46.4865918 18.37272461 -46.4865918 18.37272461 -47.93945312 18.30664062 C-50.29281353 18.20020724 -52.64628354 18.09818992 -55 18 C-51.60579065 -0.39420935 -51.60579065 -0.39420935 -49 -3 C-47.15108054 -3.23363881 -45.29511969 -3.41303635 -43.4375 -3.5625 C-42.42558594 -3.64628906 -41.41367187 -3.73007813 -40.37109375 -3.81640625 C-39.58863281 -3.87699219 -38.80617188 -3.93757813 -38 -4 C-37.61781233 -5.65614657 -37.28604898 -7.32457024 -37 -9 C-38.85581966 -10.85581966 -41.49398306 -10.12004366 -43.96286011 -10.12442017 C-44.81953278 -10.12082489 -45.67620544 -10.11722961 -46.55883789 -10.11352539 C-47.45631241 -10.11367142 -48.35378693 -10.11381744 -49.27845764 -10.1139679 C-52.25988134 -10.11326842 -55.2412434 -10.10547441 -58.22265625 -10.09765625 C-60.28388942 -10.09579219 -62.34512304 -10.09436823 -64.40635681 -10.09336853 C-69.8430401 -10.08954237 -75.27969686 -10.07971126 -80.71636963 -10.06866455 C-86.25947714 -10.05845253 -91.80258892 -10.05387136 -97.34570312 -10.04882812 C-108.23048043 -10.03808908 -119.11523802 -10.02101149 -130 -10 C-130.38218767 -8.34385343 -130.71395102 -6.67542976 -131 -5 C-129.26043342 -3.26043342 -126.8063378 -3.62809614 -124.4375 -3.4375 C-123.42558594 -3.35371094 -122.41367188 -3.26992187 -121.37109375 -3.18359375 C-120.58863281 -3.12300781 -119.80617187 -3.06242187 -119 -3 C-113 12.42857143 -113 12.42857143 -113 18 C-114.31871094 17.94457031 -115.63742188 17.88914063 -116.99609375 17.83203125 C-130.45539811 17.63786424 -138.22847041 20.38194801 -148.85693359 28.41552734 C-152.61764626 31.19600413 -156.54461394 33.69562731 -160.5 36.1875 C-161.21760498 36.66880371 -161.93520996 37.15010742 -162.67456055 37.64599609 C-168.01460493 41.02862243 -171.6997884 41.47747667 -178 41 C-173.48167875 35.44891961 -168.51585825 30.44646991 -163.4074707 25.44458008 C-159.17448555 21.34094011 -159.17448555 21.34094011 -157.5 15.875 C-158.12241126 11.05131272 -159.87068768 9.29662966 -163.17578125 5.89453125 C-164.96935155 4.03182977 -166.48979393 2.09570135 -168 0 C-160.33422752 -3.88266398 -152.57845431 -6.97190242 -144.4375 -9.6875 C-143.58841064 -9.97246338 -142.73932129 -10.25742676 -141.86450195 -10.55102539 C-130.94085855 -14.12267802 -120.18771083 -16.50949491 -108.75 -17.6875 C-107.53779785 -17.81342529 -106.3255957 -17.93935059 -105.07666016 -18.0690918 C-68.94772695 -21.55182475 -32.50850301 -16.93308335 0 0 Z " fill="#44A59A" transform="translate(340,83)"/>
<path d="M0 0 C3.4375 0.875 3.4375 0.875 6.4375 2.875 C6.953125 2.38 7.46875 1.885 8 1.375 C11.23249888 -0.61423008 13.78246998 -0.75542429 17.4375 -0.125 C21.05678234 1.27365295 24.41098729 3.07881627 27.8125 4.9375 C29.15441406 5.63649414 29.15441406 5.63649414 30.5234375 6.34960938 C42.5986204 12.79965257 51.64112169 21.78705964 61.19628906 31.42797852 C63.32298271 33.57307341 65.45771559 35.70991323 67.59375 37.84570312 C68.95620415 39.21306855 70.31819991 40.58089092 71.6796875 41.94921875 C72.31405731 42.58470139 72.94842712 43.22018402 73.60202026 43.87492371 C81.22101991 51.57611943 81.22101991 51.57611943 82.0625 56.625 C81.93665058 61.43424564 79.27658796 63.87763817 75.96875 67.11328125 C74.10949351 68.86334541 74.10949351 68.86334541 74.4375 71.875 C75.4275 73.36 75.4275 73.36 76.4375 74.875 C76.9390316 78.13495538 76.73604288 79.43315654 74.875 82.1875 C71.42513774 84.57586618 69.5870087 84.4375426 65.4375 83.875 C62.57504678 82.0441329 60.31120591 79.70553821 57.94165039 77.28491211 C56.87210114 76.23376221 56.87210114 76.23376221 55.78094482 75.16137695 C53.43110853 72.84232571 51.1077776 70.4986285 48.78515625 68.15234375 C47.15950565 66.53140869 45.53281715 64.91151395 43.90513611 63.2926178 C40.4987338 59.89653453 37.10531126 56.48811511 33.72045898 53.07055664 C29.38044397 48.69065964 25.00976007 44.34293963 20.62886906 40.00397396 C17.26446448 36.66486327 13.91691035 33.30925973 10.57421684 29.9484272 C8.96898657 28.33852708 7.3585393 26.73381149 5.74284554 25.13441277 C3.48704919 22.89639398 1.25491091 20.63715975 -0.97241211 18.37084961 C-1.64401871 17.71341263 -2.31562531 17.05597565 -3.00758362 16.37861633 C-6.14388443 13.13984083 -7.45850741 11.65304941 -8.07203674 7.0627594 C-7.5625 3.875 -7.5625 3.875 -6 1.375 C-3.5625 -0.125 -3.5625 -0.125 0 0 Z " fill="#FB8475" transform="translate(345.5625,68.125)"/>
<path d="M0 0 C3.84046467 0.02762924 6.13077328 0.91057996 9.25 3.25 C9.806875 2.755 10.36375 2.26 10.9375 1.75 C13.7230572 -0.05684791 14.99084723 -0.32035173 18.25 0.25 C20.5625 1.8125 20.5625 1.8125 22.25 4.25 C22.79883282 7.62760834 22.99413172 10.08659374 21.0971508 13.05241203 C19.36582917 15.04741068 17.54761617 16.8979725 15.65991211 18.74584961 C14.95914551 19.45888245 14.25837891 20.17191528 13.53637695 20.90655518 C11.21732571 23.25639147 8.8736285 25.5797224 6.52734375 27.90234375 C4.90640869 29.52799435 3.28651395 31.15468285 1.6676178 32.78236389 C-1.72846547 36.1887662 -5.13688489 39.58218874 -8.55444336 42.96704102 C-12.93434036 47.30705603 -17.28206037 51.67773993 -21.62102604 56.05863094 C-24.96013673 59.42303552 -28.31574027 62.77058965 -31.6765728 66.11328316 C-33.28647292 67.71851343 -34.89118851 69.3289607 -36.49058723 70.94465446 C-38.72860602 73.20045081 -40.98784025 75.43258909 -43.25415039 77.65991211 C-43.91158737 78.33151871 -44.56902435 79.00312531 -45.24638367 79.69508362 C-48.48515917 82.83138443 -49.97195059 84.14600741 -54.5622406 84.75953674 C-57.75 84.25 -57.75 84.25 -60.25 82.6875 C-61.75 80.25 -61.75 80.25 -61.625 76.6875 C-60.75 73.25 -60.75 73.25 -58.75 70.25 C-59.24371094 69.76789063 -59.73742187 69.28578125 -60.24609375 68.7890625 C-61.20708984 67.84160156 -61.20708984 67.84160156 -62.1875 66.875 C-62.82558594 66.24851562 -63.46367188 65.62203125 -64.12109375 64.9765625 C-66.83175936 62.10338697 -67.34212455 59.48004222 -67.27325439 55.52429199 C-66.16155918 50.69237933 -62.19387474 47.51896232 -58.7734375 44.140625 C-57.93777252 43.29256287 -57.10210754 42.44450073 -56.24111938 41.57073975 C-54.46033669 39.77575038 -52.66919639 37.99098649 -50.86865234 36.21582031 C-48.17880074 33.55325497 -45.5398154 30.84714223 -42.90234375 28.1328125 C-31.84569115 16.98265374 -20.75790939 8.85758668 -6.54385376 2.14373779 C-2.58728112 0.17248541 -2.58728112 0.17248541 0 0 Z " fill="#FC8374" transform="translate(151.75,67.75)"/>
<path d="M0 0 C8.84234914 2.14918208 14.86950754 6.42253783 19.875 14.0625 C24.27537866 21.34004932 24.89543348 28.67718141 24 37 C21.60945234 46.19526936 16.96467638 53.28696189 8.84765625 58.33984375 C3.11173289 61.3413232 -1.49045165 62.12518362 -8 62 C-8.03665771 62.61093506 -8.07331543 63.22187012 -8.11108398 63.85131836 C-8.59931461 70.15727851 -9.89078606 75.63721373 -12.0625 81.5625 C-12.37123047 82.42093506 -12.67996094 83.27937012 -12.99804688 84.16381836 C-19.45776773 101.71930721 -28.18048586 117.46656308 -40 132 C-40.33 132 -40.66 132 -41 132 C-41.0497018 125.89853075 -41.08586193 119.79718123 -41.10986328 113.69555664 C-41.11987668 111.62294459 -41.13349135 109.55034651 -41.15087891 107.4777832 C-41.17533313 104.48645566 -41.18653 101.49531606 -41.1953125 98.50390625 C-41.21079636 97.12991417 -41.21079636 97.12991417 -41.22659302 95.72816467 C-41.22866986 83.62649909 -37.99337295 73.71470113 -29.79296875 64.62890625 C-23.49557867 58.90774794 -14.59307601 54 -6 54 C-5.95101562 53.175 -5.90203125 52.35 -5.8515625 51.5 C-5.4361524 45.08263017 -4.85808609 38.80325488 -3.9375 32.4375 C-2.8626769 24.91938039 -2.88987266 17.49943422 -3.16186523 9.91772461 C-3.18192627 9.06186768 -3.2019873 8.20601074 -3.22265625 7.32421875 C-3.25109619 6.56197998 -3.27953613 5.79974121 -3.30883789 5.0144043 C-2.91823367 2.46667668 -1.94958321 1.61328251 0 0 Z " fill="#ECCABF" transform="translate(373,211)"/>
<path d="M0 0 C12.13498094 -0.16231855 24.26970288 -0.2866348 36.40554905 -0.3626852 C42.04102026 -0.39918934 47.6757478 -0.44868922 53.31079102 -0.52807617 C58.7508517 -0.604235 64.19019794 -0.6460115 69.63075066 -0.6641407 C71.70443912 -0.67705698 73.77808925 -0.70228048 75.85147285 -0.7401104 C78.76064086 -0.79106994 81.66687221 -0.79791799 84.57641602 -0.79467773 C85.43021851 -0.81984467 86.284021 -0.8450116 87.16369629 -0.87094116 C92.03789333 -0.8123533 94.44284119 -0.06621554 97.93687439 3.43101501 C98.96217574 4.61700764 99.98374747 5.80624451 101 7 C102.46526483 8.14304768 103.94140406 9.27261352 105.4375 10.375 C107.82684186 12.39604254 108.86601325 13.35083941 109.50390625 16.44140625 C109.50039541 18.68483122 109.36117259 20.78781788 109 23 C108.30261719 22.896875 107.60523438 22.79375 106.88671875 22.6875 C102.8397663 23.1256004 100.70318229 25.35532402 97.8125 28 C96.66616405 29.00742085 95.51901954 30.01392235 94.37109375 31.01953125 C93.80503418 31.52178223 93.23897461 32.0240332 92.65576172 32.54150391 C90.27065734 34.64244958 87.83520291 36.67526355 85.375 38.6875 C84.59898437 39.33074219 83.82296875 39.97398437 83.0234375 40.63671875 C81 42 81 42 78 42 C76.29749607 40.71274093 74.62935241 39.37868281 73 38 C70.43413062 36.71706531 68.58468451 36.85898071 65.71166992 36.83886719 C64.05436104 36.82445587 64.05436104 36.82445587 62.36357117 36.80975342 C61.16464737 36.80550354 59.96572357 36.80125366 58.73046875 36.796875 C56.88803337 36.78832489 56.88803337 36.78832489 55.00837708 36.77960205 C52.40492619 36.7701413 49.80146328 36.76361382 47.19799805 36.75976562 C43.21451852 36.75321205 39.23140564 36.71905331 35.24804688 36.6875 C32.72135724 36.68096961 30.1946639 36.67571928 27.66796875 36.671875 C26.47511765 36.6595282 25.28226654 36.6471814 24.05326843 36.63446045 C22.38177483 36.6389621 22.38177483 36.6389621 20.67651367 36.64355469 C19.69881516 36.63990906 18.72111664 36.63626343 17.71379089 36.63250732 C13.31941522 37.22757929 9.77313774 39.56659137 7 43 C5.80972016 45.59915538 5.80972016 45.59915538 5 48 C2.36 47.01 -0.28 46.02 -3 45 C-3.07442057 41.13013042 -3.04702186 37.7264085 -2 34 C6.59360514 32.30589779 14.89231444 31.67122412 23.640625 31.5859375 C24.88882019 31.56657135 26.13701538 31.5472052 27.42303467 31.5272522 C31.36528941 31.46801548 35.30757425 31.42129638 39.25 31.375 C41.94143414 31.33779123 44.6328252 31.29783726 47.32421875 31.2578125 C53.882709 31.16236059 60.44127031 31.07715361 67 31 C67.38218767 29.34385343 67.71395102 27.67542976 68 26 C66.91674401 24.69175539 66.91674401 24.69175539 64.29820251 24.87974548 C62.48951439 24.8830764 62.48951439 24.8830764 60.64428711 24.88647461 C59.64920387 24.88625557 59.64920387 24.88625557 58.63401794 24.8860321 C56.43176044 24.88673119 54.22958655 24.89452335 52.02734375 24.90234375 C50.50419664 24.90420794 48.98104893 24.90563184 47.457901 24.90663147 C43.44162349 24.91045654 39.42538192 24.92028672 35.40911865 24.93133545 C31.31376634 24.94154981 27.21840824 24.94612914 23.12304688 24.95117188 C15.08201472 24.961909 7.04101183 24.97898528 -1 25 C-1 22.69 -1 20.38 -1 18 C8.70157125 16.86547211 18.40519609 15.84307668 28.13671875 15 C29.08104767 14.91766113 30.02537659 14.83532227 30.99832153 14.75048828 C34.88581338 14.41267098 38.77343255 14.07682878 42.66186523 13.75 C45.54988692 13.50617658 48.43705426 13.25374612 51.32421875 13 C52.19406906 12.92910156 53.06391937 12.85820312 53.96012878 12.78515625 C58.8790628 12.3456177 63.29861614 11.52233022 68 10 C67.505 7.525 67.505 7.525 67 5 C60.83612009 4.91404948 54.87359876 5.20278447 48.75 5.875 C46.98830415 6.05751282 45.22658459 6.23979698 43.46484375 6.421875 C40.74458237 6.70826957 38.02466069 6.99733688 35.30517578 7.29101562 C23.48443687 8.55914087 11.89030648 9.28050526 0 9 C0 6.03 0 3.06 0 0 Z " fill="#FED7C8" transform="translate(263,184)"/>
<path d="M0 0 C-0.05027344 1.26328125 -0.10054687 2.5265625 -0.15234375 3.828125 C-0.15086758 12.20688095 1.26607631 20.47215339 2.4375 28.75 C2.67052055 30.43611529 2.90294692 32.1223128 3.13476562 33.80859375 C4.46316524 43.4199812 4.46316524 43.4199812 6 53 C7.2684375 53.32871094 7.2684375 53.32871094 8.5625 53.6640625 C20.32561403 56.95238756 28.89408914 62.49014856 35.2890625 73.1484375 C37.84119478 78.08745608 39.12825531 82.26298347 39.11352539 87.86035156 C39.11341209 89.30139252 39.11341209 89.30139252 39.11329651 90.77154541 C39.10813522 91.80084167 39.10297394 92.83013794 39.09765625 93.890625 C39.0962413 94.95037537 39.09482635 96.01012573 39.09336853 97.10198975 C39.08777382 100.48468862 39.07522225 103.86732115 39.0625 107.25 C39.05748432 109.54426988 39.05292153 111.83854079 39.04882812 114.1328125 C39.03780611 119.75523094 39.02107321 125.37761073 39 131 C21.27623047 113.69404791 12.28025704 85.62220256 7 62 C6.0821875 61.85304688 5.164375 61.70609375 4.21875 61.5546875 C-7.13391892 59.4797249 -14.35799227 55.52712984 -21 46 C-25.26148723 38.22611509 -26.4552599 28.96130563 -24.3515625 20.34375 C-20.97764872 11.00060416 -14.82121364 4.46813648 -6 0 C-3 -1 -3 -1 0 0 Z " fill="#EDCABF" transform="translate(140,212)"/>
<path d="M0 0 C0.99 0 1.98 0 3 0 C3.03738281 1.30453125 3.07476562 2.6090625 3.11328125 3.953125 C3.65866167 19.64145103 4.6298509 34.34785004 16.6875 45.8125 C23.07142407 50.98567985 30.74983863 54.55802707 39 55 C39.79664063 55.07347656 40.59328125 55.14695312 41.4140625 55.22265625 C51.61747614 55.79604693 61.42400881 52.16287271 69.29296875 45.65234375 C79.72853579 35.55109694 81.95459887 23.59676046 82.5625 9.625 C82.62727539 8.23474609 82.62727539 8.23474609 82.69335938 6.81640625 C82.79876186 4.54439706 82.90088606 2.27229075 83 0 C83.99 0 84.98 0 86 0 C89.69111852 6.8789027 91.36112116 13.13287252 91.25 20.9375 C91.23658569 22.00170166 91.23658569 22.00170166 91.22290039 23.08740234 C91.11200497 28.07597232 90.90465968 32.38420312 89 37 C88.56945312 38.04414063 88.13890625 39.08828125 87.6953125 40.1640625 C83.51020792 49.35527304 78.04001381 55.85553495 71 63 C69.77872185 64.36351536 68.5685515 65.73714941 67.375 67.125 C64.03882698 70.97197463 60.62989587 74.75035448 57.21484375 78.52734375 C54.56850387 81.48172319 51.98079538 84.4835572 49.41015625 87.50390625 C47.39994641 89.63662196 46.17179464 89.97657346 43.25 90.375 C36.80143685 89.63093502 33.04622514 84.05754567 29.05078125 79.37109375 C26.59109847 76.52723195 24.04913246 73.76328722 21.5 71 C19.66509113 69.0014371 17.83247784 67.00079432 16 65 C15.34644531 64.28714844 14.69289062 63.57429688 14.01953125 62.83984375 C1.29350999 48.65775598 -5.56376021 35.76391785 -5.33203125 16.48828125 C-4.76427318 10.52348172 -2.6600341 5.32006819 0 0 Z " fill="#FEFEFB" transform="translate(213,378)"/>
<path d="M0 0 C4.12241709 0.14473241 8.24606059 0.20747145 12.37030029 0.27770996 C20.42377384 0.4266601 28.47130758 0.66468553 36.52069092 0.96130371 C37.51069092 4.26130371 38.50069092 7.56130371 39.52069092 10.96130371 C30.92841325 10.3025157 22.67987832 8.96101744 14.24334717 7.24645996 C13.31651123 7.06728027 12.38967529 6.88810059 11.43475342 6.70349121 C10.60927002 6.53704102 9.78378662 6.37059082 8.93328857 6.19909668 C6.25168147 5.93478932 4.12365289 6.3127367 1.52069092 6.96130371 C2.01569092 9.43630371 2.01569092 9.43630371 2.52069092 11.96130371 C3.6205835 12.16288086 4.72047607 12.36445801 5.85369873 12.57214355 C9.93996852 13.32269329 14.02472254 14.08122698 18.10906982 14.84216309 C19.87591975 15.17018586 21.64317161 15.49605142 23.41082764 15.81970215 C25.95374945 16.28569007 28.49511774 16.759455 31.03631592 17.23474121 C31.82500061 17.3775351 32.6136853 17.52032898 33.42626953 17.66744995 C41.34890225 19.16532169 41.34890225 19.16532169 43.52069092 20.96130371 C44.27069092 24.08630371 44.27069092 24.08630371 44.52069092 26.96130371 C34.55208548 25.48746018 24.82188417 23.20964207 15.05609131 20.76672363 C13.08939314 20.27677426 11.11989141 19.79983347 9.14959717 19.32458496 C7.99532227 19.03881592 6.84104736 18.75304687 5.65179443 18.45861816 C2.55315094 17.96645935 0.51617414 18.12082926 -2.47930908 18.96130371 C-1.98430908 21.43630371 -1.98430908 21.43630371 -1.47930908 23.96130371 C2.95698232 25.04961514 7.39472726 26.13189156 11.83319092 27.21130371 C12.81769226 27.4512355 12.81769226 27.4512355 13.82208252 27.6960144 C22.8911543 29.90244406 31.96990136 32.00210567 41.14691162 33.71813965 C42.95120964 34.07146333 44.73906238 34.50728968 46.52069092 34.96130371 C46.85069092 35.62130371 47.18069092 36.28130371 47.52069092 36.96130371 C46.81769363 36.96716995 46.11469635 36.97303619 45.39039612 36.9790802 C38.75475604 37.0370622 32.11943592 37.10917008 25.48412037 37.19701862 C22.07307627 37.24168442 18.66215056 37.28094838 15.25091553 37.30773926 C11.32625943 37.33880177 7.40210491 37.39358989 3.47772217 37.44958496 C2.25672318 37.45597488 1.03572418 37.46236481 -0.22227478 37.46894836 C-1.36307999 37.48874252 -2.50388519 37.50853668 -3.67926025 37.52893066 C-4.68075607 37.54003372 -5.68225189 37.55113678 -6.71409607 37.56257629 C-10.89567698 38.16553561 -13.53129521 40.01328983 -16.47930908 42.96130371 C-19.74197256 42.61366694 -21.65288046 41.26934958 -24.12384033 39.19567871 C-24.80124268 38.63493652 -25.47864502 38.07419434 -26.17657471 37.49645996 C-26.87460205 36.9073584 -27.57262939 36.31825684 -28.29180908 35.71130371 C-36.52394154 27.7143794 -36.52394154 27.7143794 -46.41680908 24.14880371 C-47.09743408 24.41692871 -47.77805908 24.68505371 -48.47930908 24.96130371 C-49.07548883 18.75975382 -49.04262345 14.09355606 -44.97688293 9.14663696 C-32.74502932 -3.1143084 -16.06513383 -0.62436459 0 0 Z " fill="#FED7C8" transform="translate(187.47930908203125,183.0386962890625)"/>
<path d="M0 0 C1.07121094 -0.00945648 2.14242188 -0.01891296 3.24609375 -0.02865601 C4.98052734 -0.01954697 4.98052734 -0.01954697 6.75 -0.01025391 C7.93722656 -0.01312408 9.12445313 -0.01599426 10.34765625 -0.01895142 C12.85937985 -0.02099417 15.37111928 -0.01544963 17.8828125 -0.00292969 C21.73473572 0.01311999 25.58560955 -0.00277228 29.4375 -0.02197266 C31.87500232 -0.01999026 34.31250399 -0.01614667 36.75 -0.01025391 C37.90628906 -0.0163266 39.06257813 -0.02239929 40.25390625 -0.02865601 C41.32511719 -0.01919952 42.39632812 -0.00974304 43.5 0 C44.91539062 0.00358017 44.91539062 0.00358017 46.359375 0.00723267 C49.17741964 0.45629378 50.06919214 1.1202338 51.75 3.38818359 C52.38871076 6.91826655 52.21319785 10.4943373 52.1875 14.07568359 C52.2174707 15.5287793 52.2174707 15.5287793 52.24804688 17.01123047 C52.24304629 24.40708991 51.02327666 30.07721085 45.71484375 35.44677734 C44.71130859 36.12933594 44.71130859 36.12933594 43.6875 36.82568359 C43.01589844 37.29876953 42.34429687 37.77185547 41.65234375 38.25927734 C36.05255633 41.58235448 29.36009255 40.65290216 23.0625 40.70068359 C21.18014648 40.74418945 21.18014648 40.74418945 19.25976562 40.78857422 C10.73663272 40.8469211 4.98284401 40.09745282 -1.4921875 34.42333984 C-2.03101563 33.77236328 -2.56984375 33.12138672 -3.125 32.45068359 C-3.67929687 31.80228516 -4.23359375 31.15388672 -4.8046875 30.48583984 C-8.63295221 24.92968268 -8.58598793 19.81161932 -8.5625 13.26318359 C-8.57861328 12.35697266 -8.59472656 11.45076172 -8.61132812 10.51708984 C-8.61197266 9.64697266 -8.61261719 8.77685547 -8.61328125 7.88037109 C-8.61775269 6.69483643 -8.61775269 6.69483643 -8.62231445 5.48535156 C-7.74673069 0.55337483 -4.50204095 0.01138772 0 0 Z " fill="#393C54" transform="translate(284.25,227.61181640625)"/>
<path d="M0 0 C1.07121094 -0.00945648 2.14242187 -0.01891296 3.24609375 -0.02865601 C4.98052734 -0.01954697 4.98052734 -0.01954697 6.75 -0.01025391 C7.93722656 -0.01312408 9.12445313 -0.01599426 10.34765625 -0.01895142 C12.85937985 -0.02099417 15.37111928 -0.01544963 17.8828125 -0.00292969 C21.73473572 0.01311999 25.58560955 -0.00277228 29.4375 -0.02197266 C31.87500232 -0.01999026 34.31250399 -0.01614667 36.75 -0.01025391 C37.90628906 -0.0163266 39.06257813 -0.02239929 40.25390625 -0.02865601 C41.32511719 -0.01919952 42.39632812 -0.00974304 43.5 0 C44.91539062 0.00358017 44.91539062 0.00358017 46.359375 0.00723267 C49.17446542 0.45582302 50.06413678 1.12957169 51.75 3.38818359 C52.3802608 6.58518624 52.2133296 9.82350238 52.1875 13.07568359 C52.2174707 14.38569336 52.2174707 14.38569336 52.24804688 15.72216797 C52.24265383 22.94345733 50.57191978 28.16794115 45.78515625 33.63037109 C45.13417969 34.16919922 44.48320312 34.70802734 43.8125 35.26318359 C42.83990234 36.09462891 42.83990234 36.09462891 41.84765625 36.94287109 C35.45725879 41.34593824 28.85051167 40.72052306 21.375 40.70068359 C20.1684375 40.71679688 18.961875 40.73291016 17.71875 40.74951172 C9.74075516 40.75389523 4.82950405 39.94973265 -1.9375 35.70068359 C-7.37226071 30.26592289 -8.74294034 24.5637958 -8.74804688 17.01123047 C-8.72806641 16.0425 -8.70808594 15.07376953 -8.6875 14.07568359 C-8.69458984 13.08761719 -8.70167969 12.09955078 -8.70898438 11.08154297 C-8.64562567 3.92200973 -8.64562567 3.92200973 -7.0528717 1.77287292 C-4.61602671 -0.09873739 -3.05548699 0.00772872 0 0 Z " fill="#393C54" transform="translate(184.25,227.61181640625)"/>
<path d="M0 0 C1.69721191 -0.00717545 1.69721191 -0.00717545 3.42871094 -0.01449585 C5.81576939 -0.01789123 8.20287457 -0.00871435 10.58984375 0.01220703 C14.2380366 0.03897472 17.88315255 0.01244371 21.53125 -0.01953125 C23.85417344 -0.01622709 26.17709497 -0.00982074 28.5 0 C30.13146973 -0.01518173 30.13146973 -0.01518173 31.79589844 -0.03067017 C40.23594528 0.09958261 40.23594528 0.09958261 43.94116211 2.84423828 C46.56430159 6.04792454 46.99227262 7.36270443 46.94140625 11.4453125 C46.93270508 13.07919922 46.93270508 13.07919922 46.92382812 14.74609375 C46.88708984 15.87402344 46.85035156 17.00195312 46.8125 18.1640625 C46.81056641 19.29199219 46.80863281 20.41992188 46.80664062 21.58203125 C46.65394705 31.13951781 46.65394705 31.13951781 43.25 35.6640625 C39.93670139 36.76849537 37.23785734 36.93694055 33.75 37.0390625 C32.6053125 37.08804688 31.460625 37.13703125 30.28125 37.1875 C27.25 36.6640625 27.25 36.6640625 25.4140625 34.4375 C24.34588639 31.89251665 23.62461287 29.62105586 23.125 26.9140625 C22.74680409 24.00459487 22.74680409 24.00459487 21.25 21.6640625 C18.89686445 21.59134509 16.54166332 21.58035382 14.1875 21.6015625 C12.89714844 21.61058594 11.60679687 21.61960937 10.27734375 21.62890625 C9.27832031 21.64050781 8.27929688 21.65210938 7.25 21.6640625 C6.816875 22.8396875 6.38375 24.0153125 5.9375 25.2265625 C4.48964555 29.09440224 2.90520683 32.88073259 1.25 36.6640625 C-0.99940295 36.74525753 -3.24964871 36.80334069 -5.5 36.8515625 C-6.75296875 36.88636719 -8.0059375 36.92117188 -9.296875 36.95703125 C-12.92409558 36.64929195 -14.26165607 36.25508081 -16.75 33.6640625 C-18.41366002 28.67308243 -18.10215405 23.51576594 -18.1875 18.2890625 C-18.23326172 17.15210938 -18.27902344 16.01515625 -18.32617188 14.84375 C-18.34099609 13.74546875 -18.35582031 12.6471875 -18.37109375 11.515625 C-18.3961499 10.51354004 -18.42120605 9.51145508 -18.44702148 8.47900391 C-17.65098602 5.26419168 -16.46155989 3.59040032 -13.78871155 1.61587524 C-9.44521081 -0.41197385 -4.70416545 -0.04377487 0 0 Z " fill="#DBBCB6" transform="translate(241.75,311.3359375)"/>
<path d="M0 0 C1.63715656 -0.00135727 3.27431282 -0.00313903 4.91146851 -0.00531006 C9.33303634 -0.00984632 13.75458068 -0.00811036 18.17614889 -0.00493097 C22.82032424 -0.00238678 27.46449767 -0.00475071 32.1086731 -0.00631714 C39.90773883 -0.0081332 47.70679508 -0.00574769 55.50585938 -0.00097656 C64.49786639 0.00446115 73.48985072 0.00270469 82.48185718 -0.00280297 C90.22570866 -0.00735473 97.96955334 -0.00797445 105.71340573 -0.0053643 C110.32803349 -0.00381237 114.94265062 -0.0035778 119.55727768 -0.00690079 C123.89936245 -0.00980942 128.24141824 -0.00774931 132.58349991 -0.00200653 C134.16844891 -0.00069472 135.7534004 -0.00104589 137.33834839 -0.0032692 C144.36540319 -0.01221053 151.38868184 0.02498743 158.4067688 0.41873169 C159.3211931 0.46977114 160.23561741 0.52081059 161.17775154 0.57339668 C165.50129966 1.55235626 168.16358985 4.58135911 170.63330078 8.12939453 C170.63330078 8.45939453 170.63330078 8.78939453 170.63330078 9.12939453 C103.31330078 9.12939453 35.99330078 9.12939453 -33.36669922 9.12939453 C-26.34525332 0.93770765 -26.34525332 0.93770765 -19.56316757 0.32547379 C-13.04848091 -0.07415317 -6.52418809 -0.0091263 0 0 Z " fill="#50546F" transform="translate(187.36669921875,122.87060546875)"/>
<path d="M0 0 C3.0768608 1.37923851 5.25895322 2.97900898 7.6875 5.30859375 C8.72680664 6.29762695 8.72680664 6.29762695 9.78710938 7.30664062 C10.51736328 8.00982422 11.24761719 8.71300781 12 9.4375 C13.53069298 10.89511642 15.06194564 12.35214533 16.59375 13.80859375 C17.34398437 14.5238623 18.09421875 15.23913086 18.8671875 15.97607422 C21.71752668 18.68089471 24.60009567 21.34850818 27.5 24 C28.43714844 24.85851562 29.37429688 25.71703125 30.33984375 26.6015625 C33.56394762 29.50846379 36.84510338 32.3457671 40.16015625 35.1484375 C43.09060254 38.09754905 44.82312622 40.81241888 45.4375 44.9375 C44.76854548 49.62018167 42.41387135 52.42903183 39.3125 55.875 C35.41295944 57.77207379 32.21734779 58.10576802 28 57 C21.64734001 52.99349285 16.29655229 47.54671787 11.14453125 42.1171875 C9.24745755 40.24430236 7.30518883 38.50045001 5.29296875 36.75390625 C0.92589062 32.96321171 -3.29435234 29.03060645 -7.5 25.0625 C-8.22703125 24.37865234 -8.9540625 23.69480469 -9.703125 22.99023438 C-11.46991714 21.32805493 -13.23552048 19.66463361 -15 18 C-13.66465724 15.05886531 -12.17535119 12.89154831 -9.9609375 10.546875 C-9.38085938 9.928125 -8.80078125 9.309375 -8.203125 8.671875 C-7.59984375 8.03765625 -6.9965625 7.4034375 -6.375 6.75 C-5.76398438 6.1003125 -5.15296875 5.450625 -4.5234375 4.78125 C-3.01971926 3.18354937 -1.51184263 1.59000851 0 0 Z " fill="#515570" transform="translate(357,153)"/>
<path d="M0 0 C3.03867819 1.34603045 5.00385612 2.80424173 7.234375 5.2578125 C7.80800781 5.88300781 8.38164062 6.50820312 8.97265625 7.15234375 C9.85244141 8.12880859 9.85244141 8.12880859 10.75 9.125 C11.35199219 9.78371094 11.95398438 10.44242188 12.57421875 11.12109375 C14.05480215 12.74268509 15.52977125 14.36902454 17 16 C15.48123262 19.18941149 13.91059243 21.33246836 11.375 23.8125 C10.74335938 24.43769531 10.11171875 25.06289062 9.4609375 25.70703125 C7.41343716 27.61478156 5.33554452 29.45906329 3.22265625 31.29296875 C-0.24645374 34.31149783 -3.60575465 37.4243233 -6.93530273 40.59545898 C-10.26241142 43.76028948 -13.62902753 46.88203053 -17 50 C-18.34578125 51.25103516 -18.34578125 51.25103516 -19.71875 52.52734375 C-23.27150595 55.58596639 -25.93501463 57.41166081 -30.6875 57.75 C-35.46108734 57.3654378 -37.75430141 55.40798352 -41 52 C-42.86855108 48.26289783 -42.54097324 44.06988004 -42 40 C-40.35228023 37.37394661 -39.24297251 35.97226893 -37 34 C-36.47664063 33.52949219 -35.95328125 33.05898437 -35.4140625 32.57421875 C-34.13682964 31.45036538 -32.84915372 30.33833487 -31.5546875 29.234375 C-28.21552091 26.31388068 -24.98534587 23.28458747 -21.75 20.25 C-15.96680637 14.82965922 -10.1485954 9.45135019 -4.29296875 4.109375 C-2.83509575 2.76823119 -1.40072488 1.40072488 0 0 Z " fill="#515570" transform="translate(152,153)"/>
<path d="M0 0 C4.50294543 1.1299434 5.81747652 2.60789424 8.76858521 6.14100647 C9.72168096 7.24631614 10.67771498 8.34909744 11.63632202 9.44963074 C12.13081093 10.02352161 12.62529984 10.59741249 13.13477325 11.188694 C15.66633501 14.05014396 18.36216298 16.74022071 21.06838989 19.43544006 C21.62449511 19.99184457 22.18060032 20.54824907 22.75355721 21.12151432 C24.51140582 22.87820315 26.27250972 24.63158699 28.03372192 26.38490295 C29.28419757 27.6335064 30.53444735 28.88233609 31.78448486 30.13137817 C35.03857637 33.38169704 38.29565843 36.62900212 41.55343628 39.87562561 C44.87161823 43.18351879 48.18692331 46.49429259 51.50247192 49.80482483 C56.84950705 55.14312975 62.19822137 60.47974476 67.54933167 65.81396484 C68.92198853 67.18240628 70.2942691 68.55122513 71.66653442 69.9200592 C72.59595856 70.80790604 73.52538269 71.69575287 74.48297119 72.61050415 C76.66653442 74.9200592 76.66653442 74.9200592 77.22903442 77.4825592 C76.45980004 80.81590818 75.48027705 81.97208354 72.66653442 83.9200592 C69.28892609 84.46889203 66.82994068 84.66419093 63.86412239 82.76721001 C61.86912374 81.03588838 60.01856193 79.21767538 58.17068481 77.32997131 C57.10113556 76.27882141 57.10113556 76.27882141 56.00997925 75.20643616 C53.66014295 72.88738491 51.33681202 70.5436877 49.01419067 68.19740295 C47.38854008 66.5764679 45.76185158 64.95657315 44.13417053 63.337677 C40.72776822 59.94159373 37.33434568 56.53317432 33.94949341 53.11561584 C29.60947839 48.73571884 25.23879449 44.38799884 20.85790348 40.04903316 C17.4934989 36.70992248 14.14594477 33.35431894 10.80325127 29.9934864 C9.19802099 28.38358628 7.58757373 26.7788707 5.97187996 25.17947197 C3.71608362 22.94145318 1.48394534 20.68221895 -0.74337769 18.41590881 C-1.41498428 17.75847183 -2.08659088 17.10103485 -2.77854919 16.42367554 C-5.91485 13.18490003 -7.22947299 11.69810862 -7.84300232 7.1078186 C-7.33346558 3.9200592 -7.33346558 3.9200592 -5.77096558 1.4200592 C-3.33346558 -0.0799408 -3.33346558 -0.0799408 0 0 Z " fill="#F65565" transform="translate(345.3334655761719,68.07994079589844)"/>
<path d="M0 0 C3.33334898 0.76923438 4.48952434 1.74875737 6.4375 4.5625 C6.98633282 7.94010834 7.18163172 10.39909374 5.2846508 13.36491203 C3.55332917 15.35991068 1.73511617 17.2104725 -0.15258789 19.05834961 C-0.85335449 19.77138245 -1.55412109 20.48441528 -2.27612305 21.21905518 C-4.59517429 23.56889147 -6.9388715 25.8922224 -9.28515625 28.21484375 C-10.90609131 29.84049435 -12.52598605 31.46718285 -14.1448822 33.09486389 C-17.54096547 36.5012662 -20.94938489 39.89468874 -24.36694336 43.27954102 C-28.74684036 47.61955603 -33.09456037 51.99023993 -37.43352604 56.37113094 C-40.77263673 59.73553552 -44.12824027 63.08308965 -47.4890728 66.42578316 C-49.09897292 68.03101343 -50.70368851 69.6414607 -52.30308723 71.25715446 C-54.54110602 73.51295081 -56.80034025 75.74508909 -59.06665039 77.97241211 C-59.72408737 78.64401871 -60.38152435 79.31562531 -61.05888367 80.00758362 C-64.29765917 83.14388443 -65.78445059 84.45850741 -70.3747406 85.07203674 C-73.5625 84.5625 -73.5625 84.5625 -76.0625 83 C-77.5625 80.5625 -77.5625 80.5625 -77.4825592 77.22903442 C-76.3526158 72.72608899 -74.87466497 71.4115579 -71.34155273 68.46044922 C-70.23624306 67.50735346 -69.13346177 66.55131944 -68.03292847 65.5927124 C-67.45903759 65.0982235 -66.88514671 64.60373459 -66.2938652 64.09426117 C-63.43241525 61.56269942 -60.7423385 58.86687145 -58.04711914 56.16064453 C-57.21251238 55.32648671 -57.21251238 55.32648671 -56.36104488 54.47547722 C-54.60435605 52.71762861 -52.85097221 50.95652471 -51.09765625 49.1953125 C-49.84905281 47.94483685 -48.60022312 46.69458707 -47.35118103 45.44454956 C-44.10086217 42.19045805 -40.85355708 38.933376 -37.60693359 35.67559814 C-34.29904042 32.35741619 -30.98826661 29.04211111 -27.67773438 25.7265625 C-22.33942946 20.37952737 -17.00281445 15.03081305 -11.66859436 9.67970276 C-10.30015292 8.3070459 -8.93133407 6.93476532 -7.5625 5.5625 C-6.67465317 4.63307587 -5.78680634 3.70365173 -4.87205505 2.74606323 C-2.5625 0.5625 -2.5625 0.5625 0 0 Z " fill="#F65565" transform="translate(167.5625,67.4375)"/>
<path d="M0 0 C8.84234914 2.14918208 14.86950754 6.42253783 19.875 14.0625 C24.27537866 21.34004932 24.89543348 28.67718141 24 37 C21.58475139 46.29028186 16.92940676 52.90787421 9.05859375 58.33984375 C3.94455044 61.24296733 -1.19339723 61.76202448 -7 62 C-6.6137017 54.43388157 -5.88887139 46.99426362 -4.85668945 39.49291992 C-3.47424246 29.41643529 -2.6886392 19.68821585 -3.11108398 9.51147461 C-3.13630127 8.69686768 -3.16151855 7.88226074 -3.1875 7.04296875 C-3.23970703 5.97598755 -3.23970703 5.97598755 -3.29296875 4.88745117 C-2.91099767 2.42660252 -1.87129033 1.56831074 0 0 Z " fill="#F9BFAA" transform="translate(373,211)"/>
<path d="M0 0 C0.639375 -0.01933594 1.27875 -0.03867188 1.9375 -0.05859375 C5.16795953 0.71842966 6.69960258 2.04302642 9 4.4375 C9.37623416 7.40953753 9.45254225 9.75987359 9.26953125 12.703125 C9.22562508 13.89322174 9.22562508 13.89322174 9.18083191 15.10736084 C9.08203797 17.63575097 8.94777179 20.16082472 8.8125 22.6875 C8.73919093 24.40354724 8.66820013 26.11969519 8.59960938 27.8359375 C8.42659655 32.03809945 8.22176122 36.23763994 8 40.4375 C9.67449219 40.62699219 9.67449219 40.62699219 11.3828125 40.8203125 C15 41.4375 15 41.4375 16.875 43.3125 C18 45.4375 18 45.4375 19 48.4375 C21.01452812 50.31147964 23.13860528 51.99849123 25.28515625 53.71875 C27 55.4375 27 55.4375 27 58.4375 C20.4 57.7775 13.8 57.1175 7 56.4375 C6.34 57.7575 5.68 59.0775 5 60.4375 C2.19084526 61.84207737 0.11189466 61.68645157 -3 61.4375 C-5.375 60.0625 -5.375 60.0625 -7 58.4375 C-7 57.7775 -7 57.1175 -7 56.4375 C-16.405 56.9325 -16.405 56.9325 -26 57.4375 C-23 52.4375 -23 52.4375 -21 51.0625 C-18.13434649 48.73415652 -17.40577503 45.79913595 -16 42.4375 C-13 40.4375 -13 40.4375 -8 40.4375 C-8.495 22.1225 -8.495 22.1225 -9 3.4375 C-3.28186109 0.00661666 -3.28186109 0.00661666 0 0 Z " fill="#F9BFA9" transform="translate(256,235.5625)"/>
<path d="M0 0 C-0.04898438 1.27359375 -0.09796875 2.5471875 -0.1484375 3.859375 C-0.14555051 12.06418679 1.22465576 20.14442317 2.375 28.25 C2.59957109 29.86840467 2.82353323 31.48689397 3.046875 33.10546875 C3.68831349 37.73835437 4.34167796 42.36948607 5 47 C5.10235962 47.72002197 5.20471924 48.44004395 5.31018066 49.18188477 C5.87088354 53.12162625 6.43419716 57.06098787 7 61 C-3.33514066 61.06540752 -9.18945437 58.7619393 -16.76171875 51.54296875 C-23.37840113 44.02558615 -25.40530737 35.71736849 -25.2734375 25.90625 C-24.47291603 17.39785036 -20.24359397 10.66455098 -14 5 C-4.98514286 -1.66171429 -4.98514286 -1.66171429 0 0 Z " fill="#F9BFA9" transform="translate(140,212)"/>
<path d="M0 0 C0.85353058 0.00045319 1.70706116 0.00090637 2.5864563 0.00137329 C3.9278492 -0.00366463 3.9278492 -0.00366463 5.29634094 -0.00880432 C8.26814137 -0.01834461 11.23988563 -0.02025896 14.21170044 -0.02133179 C16.26814294 -0.02454219 18.32458521 -0.0279061 20.38102722 -0.03141785 C24.69788137 -0.0374168 29.01471547 -0.03925696 33.33157349 -0.03866577 C38.87475999 -0.0385641 44.41781854 -0.05221837 49.96097469 -0.06943798 C54.20992122 -0.08053314 58.45883657 -0.08258575 62.7077961 -0.08205605 C64.7520142 -0.08323984 66.79623301 -0.08768382 68.84043694 -0.09538841 C71.69467107 -0.10513847 74.5486243 -0.10233011 77.40286255 -0.09628296 C78.2543689 -0.10190247 79.10587524 -0.10752197 79.98318481 -0.11331177 C85.8310414 -0.08167833 85.8310414 -0.08167833 88.05935669 2.14663696 C87.50380113 6.70219252 87.50380113 6.70219252 86.05935669 8.14663696 C76.84232415 9.47415164 67.47045488 9.29437461 58.18045044 9.27944946 C56.67695602 9.28012531 55.1734617 9.28109767 53.66996765 9.28234863 C50.53941799 9.28381193 47.40889711 9.2817152 44.27835083 9.27700806 C40.29571209 9.27130665 36.31314071 9.27460115 32.33050442 9.28058052 C29.23243211 9.28421909 26.13437539 9.28303259 23.03630257 9.28045273 C21.56890924 9.27979281 20.10151443 9.28057858 18.63412285 9.28293228 C-0.13867384 9.3064516 -0.13867384 9.3064516 -5.94064331 8.14663696 C-6.60064331 7.48663696 -7.26064331 6.82663696 -7.94064331 6.14663696 C-7.18836797 -0.02202079 -6.03992547 0.03334279 0 0 Z " fill="#505570" transform="translate(215.94064331054688,71.85336303710938)"/>
<path d="M0 0 C0.74507812 0.00451172 1.49015625 0.00902344 2.2578125 0.01367188 C4.0885764 0.02540754 5.91929873 0.0433415 7.75 0.0625 C7.77916504 0.61486328 7.80833008 1.16722656 7.83837891 1.73632812 C8.83992991 18.82285896 12.05515996 32.68363611 21.75 47.0625 C22.37648438 48.0215625 22.37648438 48.0215625 23.015625 49 C23.91232031 50.36398723 24.82824563 51.71532053 25.75 53.0625 C11.05461835 47.86821768 1.32502901 33.48217375 -5.25 20.0625 C-10.60293794 8.07347434 -10.60293794 8.07347434 -10.25 2.0625 C-10.91 1.7325 -11.57 1.4025 -12.25 1.0625 C-8.15996141 -0.08732602 -4.21822949 -0.04844256 0 0 Z " fill="#F1BC10" transform="translate(149.25,385.9375)"/>
<path d="M0 0 C2.62506802 -0.02690844 5.24986173 -0.04679404 7.875 -0.0625 C8.62136719 -0.07087891 9.36773437 -0.07925781 10.13671875 -0.08789062 C15.7734375 -0.11328125 15.7734375 -0.11328125 18 1 C16.96679763 18.56444026 6.4452279 34.21603081 -6 46 C-9.22016395 48.53748919 -12.51018987 50.85009528 -16 53 C-16.66 52.67 -17.32 52.34 -18 52 C-17.64808594 51.58492188 -17.29617188 51.16984375 -16.93359375 50.7421875 C-6.96843607 38.30525442 -1.30035152 23.51587453 -0.4375 7.6875 C-0.39431641 6.94693359 -0.35113281 6.20636719 -0.30664062 5.44335938 C-0.20129568 3.62908536 -0.10021684 1.8145645 0 0 Z " fill="#F1BC0F" transform="translate(355,386)"/>
<path d="M0 0 C1.55170898 -0.00945648 1.55170898 -0.00945648 3.13476562 -0.019104 C4.81602539 -0.01303131 4.81602539 -0.01303131 6.53125 -0.00683594 C7.67787109 -0.00874939 8.82449219 -0.01066284 10.00585938 -0.01263428 C12.43359598 -0.01399715 14.86133984 -0.01029361 17.2890625 -0.00195312 C21.01579073 0.00874469 24.74203686 -0.00184525 28.46875 -0.01464844 C30.82291774 -0.01332686 33.17708517 -0.01076451 35.53125 -0.00683594 C36.65208984 -0.0108844 37.77292969 -0.01493286 38.92773438 -0.019104 C39.96220703 -0.01279968 40.99667969 -0.00649536 42.0625 0 C43.43245117 0.00238678 43.43245117 0.00238678 44.83007812 0.00482178 C47.03125 0.25878906 47.03125 0.25878906 49.03125 2.25878906 C37.17627817 10.48514784 27.61744752 13.63542913 13.03125 12.25878906 C5.41978849 10.55559224 -0.7519998 6.86378921 -6.96875 2.25878906 C-4.42601278 -0.28394815 -3.52435561 0.00614026 0 0 Z " fill="#E29193" transform="translate(234.96875,311.7412109375)"/>
<path d="M0 0 C7.59 0 15.18 0 23 0 C23 3.3 23 6.6 23 10 C21.48578999 11.51421001 20.07527232 11.21309856 17.96484375 11.31640625 C17.15595703 11.35830078 16.34707031 11.40019531 15.51367188 11.44335938 C14.2384668 11.50233398 14.2384668 11.50233398 12.9375 11.5625 C11.65649414 11.62727539 11.65649414 11.62727539 10.34960938 11.69335938 C8.23327963 11.79976702 6.11666187 11.90041731 4 12 C2.68 8.04 1.36 4.08 0 0 Z " fill="#FED7C8" transform="translate(232,184)"/>
<path d="M0 0 C2.64 0 5.28 0 8 0 C8 9.57 8 19.14 8 29 C5.36 29 2.72 29 0 29 C0 19.43 0 9.86 0 0 Z " fill="#F2BC0F" transform="translate(252,468)"/>
<path d="M0 0 C0.04241723 2.33294775 0.04092937 4.66702567 0 7 C-1.81115956 8.81115956 -4.61278227 8.38199448 -7.0625 8.5625 C-8.16722656 8.64628906 -9.27195313 8.73007813 -10.41015625 8.81640625 C-11.26480469 8.87699219 -12.11945313 8.93757812 -13 9 C-13.66 6.36 -14.32 3.72 -15 1 C-10.03926578 -0.32286246 -5.08888488 -0.08893197 0 0 Z " fill="#FED7C8" transform="translate(254,203)"/>
<path d="M0 0 C3.625 0.1875 3.625 0.1875 6.625 2.1875 C5.75 7.0625 5.75 7.0625 4.625 8.1875 C-1.11111111 8.46064815 -1.11111111 8.46064815 -3.375 8.1875 C-4.035 7.5275 -4.695 6.8675 -5.375 6.1875 C-4.65194407 0.25844134 -4.65194407 0.25844134 0 0 Z " fill="#FAA196" transform="translate(265.375,275.8125)"/>
<path d="M0 0 C2.97 0 5.94 0 9 0 C9.1953125 6.0546875 9.1953125 6.0546875 9 8 C8.34 8.66 7.68 9.32 7 10 C5.68 10 4.36 10 3 10 C2.01 6.7 1.02 3.4 0 0 Z " fill="#FCD6C7" transform="translate(244,219)"/>
<path d="M0 0 C3.98381075 2.16264012 6.88983545 4.71211176 10 8 C9.67 8.66 9.34 9.32 9 10 C1.575 9.01 1.575 9.01 -6 8 C-4.35 6.35 -2.7 4.7 -1 3 C-0.67 2.01 -0.34 1.02 0 0 Z " fill="#DBBCB5" transform="translate(274,284)"/>
<path d="M0 0 C0.61875 0.78375 1.2375 1.5675 1.875 2.375 C3.89858661 4.96837647 3.89858661 4.96837647 6 7 C-0.435 7.495 -0.435 7.495 -7 8 C-3.625 2.375 -3.625 2.375 0 0 Z " fill="#DCBDB6" transform="translate(237,285)"/>
</svg>
